<?xml version="1.0" encoding="utf-8"?>
<!-- Generator: Adobe Illustrator 26.3.1, SVG Export Plug-In . SVG Version: 6.00 Build 0)  -->
<svg version="1.1" id="Layer_1" xmlns="http://www.w3.org/2000/svg" xmlns:xlink="http://www.w3.org/1999/xlink" x="0px" y="0px"
	 viewBox="0 0 184.8 60.8" style="enable-background:new 0 0 184.8 60.8;" xml:space="preserve">
<style type="text/css">
	.st0{fill:#181617;}
	.st1{fill:#E9383F;}
	.st2{fill:#00327E;}
	.st3{fill:#FFFFFF;}
	.st4{fill:#272625;}
	.st5{fill:#771A7B;}
	.st6{clip-path:url(#SVGID_00000094601992257149934180000015322029535640283814_);}
	.st7{fill:#681966;}
	.st8{fill:#050605;}
	.st9{font-family:'Poppins-Medium';}
	.st10{font-size:9px;}
</style>
<g id="Group_29" transform="translate(-208 -59.035)">
	<path id="Path_124" class="st0" d="M289.9,62.6l-2.5,4.9c-0.3,0.5-0.9,0.6-1.4,0.4c-0.9-0.6-2-0.9-3.1-0.9c-2.5,0-3.5,2-3.5,4.9
		v27.8c0,0.6-0.5,1.1-1.1,1.1h-6.8c-0.6,0-1.1-0.5-1.1-1.1v-9.1c0-6.2,5-8.4,7.5-9.1v-0.4l-7.5,1.1l0-8.6v-1.8
		c0-8.2,5.1-12.8,11.9-12.8c2.6,0,5.1,0.8,7.2,2.2C290,61.6,290.1,62.2,289.9,62.6"/>
	<path id="Path_125" class="st0" d="M301.6,75.3v24.4c0,0.6-0.5,1.1-1.1,1.1h-6.8c-0.6,0-1.1-0.5-1.1-1.1V84.8c0-6.2,5-8.4,7.5-9.1
		v-0.4h-7.4l-0.1-7.5v-7.3c0-0.6,0.5-1.1,1.1-1.1c0,0,0,0,0,0h6.8c0.6,0,1.1,0.5,1.1,1.1c0,0,0,0,0,0v13.1L301.6,75.3z"/>
	<path id="Path_126" class="st0" d="M211.6,97.7c-2.4-2-3.7-5-3.6-8.2h8.7c0,1.2,0.4,2.3,1.3,3c1.2,0.9,2.6,1.3,4.1,1.2
		c1.4,0.1,2.8-0.2,4-0.8c0.9-0.3,1.4-1.2,1.4-2.1c0-0.6-0.2-1.2-0.6-1.6c-0.6-0.5-1.2-0.8-1.9-1c-0.8-0.2-2.3-0.6-4.3-1.1
		c-2-0.4-4-1-5.9-1.8c-1.7-0.7-3.1-1.8-4.2-3.2c-1.3-1.7-1.9-3.7-1.8-5.8c-0.1-3,1.2-6,3.6-7.9c2.4-1.9,5.6-2.8,9.8-2.8
		c2.5-0.1,5,0.4,7.3,1.4c1.9,0.8,3.5,2.2,4.5,4c1,1.8,1.6,3.8,1.5,5.8h-8.7c0-1.1-0.4-2.2-1.1-3c-0.9-0.9-2.2-1.3-3.5-1.2
		c-1.2-0.1-2.4,0.2-3.5,0.8c-0.8,0.4-1.3,1.2-1.3,2.1c0,0.6,0.2,1.2,0.6,1.7c0.6,0.5,1.2,0.8,1.9,1c0.9,0.3,2.3,0.6,4.3,1
		c2,0.4,4,1,5.9,1.8c1.7,0.7,3.1,1.8,4.2,3.2c1.3,1.7,1.9,3.7,1.8,5.8c0.1,3.1-1.3,6-3.7,7.8c-2.5,1.9-5.9,2.8-10.3,2.8
		C217.5,100.8,214,99.7,211.6,97.7"/>
	<path id="Path_127" class="st0" d="M241.9,97.4c-2.3-2.2-3.5-5.3-3.5-9.2c0-3.9,1.2-7,3.5-9.3c2.3-2.2,5.5-3.4,9.5-3.4
		c4,0,7.2,1.1,9.5,3.4c2.3,2.2,3.5,5.3,3.5,9.3c0,3.9-1.2,7-3.5,9.2c-2.3,2.2-5.5,3.4-9.5,3.4C247.4,100.8,244.2,99.6,241.9,97.4
		 M254.9,93c0.9-1.4,1.4-3.1,1.3-4.8c0.1-1.7-0.4-3.4-1.3-4.9c-0.8-1.1-2.1-1.8-3.5-1.8c-1.4,0-2.7,0.6-3.5,1.8
		c-0.9,1.4-1.4,3.1-1.3,4.8c-0.1,1.7,0.4,3.4,1.3,4.8c0.8,1.1,2.1,1.8,3.5,1.8C252.8,94.8,254.1,94.1,254.9,93"/>
	<path id="Path_128" class="st0" d="M328.4,100.3c-0.3-1.2-0.5-2.4-0.5-3.6c-0.8,1.3-1.9,2.4-3.2,3.1c-1.4,0.7-3,1.1-4.6,1.1
		c-2.4,0.1-4.8-0.8-6.5-2.5c-1.7-1.9-2.5-4.4-2.4-6.9V76h8.2v14c0,1.1,0.2,2.1,0.6,3.1c0.4,0.9,1.3,1.4,2.7,1.4
		c1.4,0.1,2.7-0.5,3.6-1.6c0.9-1.2,1.4-2.8,1.3-4.3V76h8.3v20.2c0,0.8,0,1.5,0.1,2.3c0.1,0.6,0.2,1.2,0.3,1.7L328.4,100.3z"/>
	<path id="Path_129" class="st0" d="M357.3,100.3c-0.3-1.1-0.5-2.2-0.5-3.4c-0.7,1.2-1.8,2.2-3,2.9c-1.3,0.7-2.7,1-4.1,1
		c-2.1,0-4.1-0.5-5.8-1.5c-1.7-1-3-2.6-3.8-4.4c-0.9-2.1-1.4-4.4-1.3-6.7c-0.1-2.3,0.4-4.6,1.3-6.7c0.8-1.8,2.2-3.3,3.8-4.4
		c1.8-1,3.8-1.6,5.8-1.5c2.7-0.1,5.3,1.2,6.8,3.5V64.3h8.2v32c0,0.8,0,1.5,0.2,2.3c0.1,0.6,0.2,1.2,0.3,1.7L357.3,100.3z
		 M355.4,92.9c0.9-1.4,1.3-3.1,1.3-4.7c0.1-1.7-0.4-3.4-1.3-4.8c-0.8-1.2-2.2-1.8-3.6-1.8c-1.4,0-2.7,0.6-3.5,1.8
		c-0.9,1.4-1.4,3.2-1.3,4.9c-0.1,1.7,0.4,3.4,1.3,4.8c1.5,2,4.3,2.3,6.3,0.8C354.9,93.5,355.2,93.2,355.4,92.9"/>
	<path id="Path_130" class="st0" d="M392.6,90.2h-16.5c0,1.3,0.6,2.5,1.4,3.5c0.9,0.7,2,1.1,3.1,1c0.8,0.1,1.7-0.2,2.4-0.6
		c0.5-0.4,0.9-0.9,1-1.5h8.3c-0.2,2.4-1.5,4.6-3.4,6c-2,1.4-4.9,2.2-8.6,2.2c-4.1,0-7.2-1.1-9.4-3.2c-2.2-2.2-3.3-5.3-3.3-9.3
		c-0.1-2.3,0.5-4.7,1.6-6.7c1-1.9,2.6-3.4,4.4-4.4c2.1-1.1,4.4-1.6,6.7-1.5c3.9,0,7,1,9.2,3s3.3,4.9,3.3,8.8
		C392.8,88.3,392.7,89.2,392.6,90.2 M377.4,82.3c-0.8,1-1.2,2.1-1.3,3.3h8.2c0-1.2-0.4-2.3-1-3.2c-0.8-0.8-1.9-1.2-3-1.1
		C379.2,81.2,378.2,81.6,377.4,82.3"/>
	<path id="Path_131" class="st0" d="M300.4,79.9C300.4,79.9,300.4,79.9,300.4,79.9C300.4,79.9,300.4,79.9,300.4,79.9L300.4,79.9z"/>
	<path id="Path_132" class="st1" d="M313.9,70.6c0,0.5-0.3,1-0.8,1.2c-0.5,0.2-44.9,11.9-44.9,11.9l-0.2,0.1c-0.1,0-0.2,0-0.2,0
		c-0.7,0-1.4-0.6-1.4-1.4c0-0.5,0.3-0.9,0.7-1.2l0.3-0.1l33.1-14.3h0c0.7-0.3,1.4-0.4,2.1-0.4c0.6,0,1.2,0.1,1.7,0.2l8.7,2.6
		C313.5,69.5,313.8,70,313.9,70.6"/>
	<g id="Group_28" transform="translate(323.593 107.084)">
		<path id="Path_142" class="st2" d="M67.2,8.7c0,0.1-0.1,0.1-0.2,0.1h-2.8c-0.1,0-0.2-0.1-0.2-0.1V8.5c0-0.1,0.1-0.2,0.2-0.1h2.8
			c0.1,0,0.2,0.1,0.2,0.1V8.7z"/>
		<path id="Path_142_00000154403597758481269980000007481542010645221290_" class="st2" d="M61.7,0.1c0,0.1-0.1,0.1-0.2,0.1h-2.8
			c-0.1,0-0.2-0.1-0.2-0.1v-0.2c0-0.1,0.1-0.2,0.2-0.1h2.8c0.1,0,0.2,0.1,0.2,0.1V0.1z"/>
		<path id="Path_143" class="st2" d="M65.5,8.6c-0.3,0-0.5,0-0.8-0.1l-1.3-2.3c0-0.8,0.1-1.5,0.4-2.2L64,4.3l2.5,4.2
			C66.1,8.6,65.8,8.6,65.5,8.6"/>
		<g id="Group_27" transform="translate(0 0)">
			<rect id="Rectangle_15" x="29.2" y="11.2" class="st3" width="0.2" height="0.8"/>
			<path id="Path_133" class="st4" d="M4.4,5.5c0.5,0.3,0.9,0.7,1.2,1.2c0.1,0.2,0.1,0.4,0.1,0.6v0.1c0,0.6-0.3,1.2-0.9,1.5
				C4.6,9.2,4.3,9.4,4,9.4C3.6,9.6,3.3,9.6,2.9,9.6h0c0,0-0.1,0-0.2,0c-1,0-1.9-0.4-2.5-1.2C0.1,8.3,0,8.1,0,8
				c0.1-0.1,0.2-0.1,0.2-0.2C0.6,7.6,1,7.4,1.4,7.4c0,0,0,0.1,0.1,0.1c0,0,0,0,0,0c0,0,0,0,0,0C1.8,8,2.3,8.2,2.8,8.1h0.1
				c0.3,0,0.6-0.1,0.9-0.3C3.9,7.7,4,7.5,4,7.4c0-0.3-0.2-0.5-0.7-0.7C3,6.6,2.8,6.5,2.5,6.4C2.1,6.4,1.7,6.2,1.4,6
				C0.8,5.8,0.4,5.4,0.2,4.8C0.1,4.7,0,4.5,0,4.3V4.1c0-0.6,0.3-1.2,0.9-1.5c0.3-0.2,0.6-0.4,0.9-0.5C2.1,2,2.5,2,2.9,2
				c0,0,0.1,0,0.2,0C4,2,5,2.4,5.5,3.2c0.1,0.1,0.1,0.2,0.2,0.3l0.1,0.1C5.7,3.7,5.6,3.7,5.5,3.8C5.2,4,4.8,4.1,4.3,4.2
				c0,0,0-0.1,0-0.1c0,0,0,0,0,0C3.9,3.6,3.4,3.4,2.9,3.5H2.9C2.5,3.5,2.2,3.6,2,3.8C1.9,3.9,1.8,4,1.8,4.2c0,0.3,0.2,0.5,0.7,0.7
				C2.8,5,3,5.1,3.3,5.1C3.7,5.2,4.1,5.4,4.4,5.5"/>
			<path id="Path_134" class="st4" d="M8.7,12.7c-0.2,0.1-0.4,0.1-0.6,0.1c-0.2,0-0.3,0-0.5,0c-0.2,0-0.4-0.1-0.6-0.1l1.1-3L5.5,2.2
				L5.4,2l1.7,0l1.8,5.3L10.8,2h1.7l-0.1,0.2L8.7,12.7z"/>
			<path id="Path_135" class="st4" d="M16.6,5.5c0.5,0.3,0.9,0.7,1.2,1.2c0.1,0.2,0.1,0.4,0.1,0.6v0.1c0,0.6-0.3,1.2-0.9,1.5
				c-0.3,0.2-0.6,0.4-0.9,0.5c-0.4,0.1-0.7,0.2-1.1,0.2h0c0,0-0.1,0-0.2,0c-1,0-1.9-0.4-2.5-1.2c-0.1-0.1-0.2-0.3-0.2-0.4
				c0.1-0.1,0.2-0.1,0.2-0.2c0.4-0.2,0.8-0.4,1.2-0.4c0,0,0,0.1,0.1,0.1c0,0,0,0,0,0c0,0,0,0,0,0C14,8,14.5,8.2,15,8.1h0.1
				c0.3,0,0.6-0.1,0.9-0.3c0.1-0.1,0.2-0.3,0.2-0.4c0-0.3-0.2-0.5-0.7-0.7c-0.2-0.1-0.5-0.2-0.7-0.2c-0.4-0.1-0.8-0.2-1.1-0.4
				c-0.5-0.3-0.9-0.7-1.2-1.2c-0.1-0.2-0.1-0.4-0.1-0.6V4.1c0-0.6,0.3-1.2,0.9-1.5c0.3-0.2,0.6-0.4,0.9-0.5C14.3,2,14.7,2,15.1,2
				c0,0,0.1,0,0.2,0c1,0,1.9,0.4,2.5,1.2c0.1,0.1,0.1,0.2,0.2,0.3l0.1,0.1c-0.1,0.1-0.2,0.1-0.2,0.2c-0.4,0.2-0.8,0.4-1.2,0.4
				c0,0,0-0.1,0-0.1c0,0,0,0,0,0c-0.3-0.4-0.8-0.6-1.3-0.5H15c-0.3,0-0.6,0.1-0.9,0.3C14,3.9,14,4,14,4.2c0,0.3,0.2,0.5,0.7,0.7
				c0.2,0.1,0.5,0.2,0.7,0.2C15.8,5.2,16.2,5.4,16.6,5.5"/>
			<path id="Path_136" class="st4" d="M22.1,9c0,0.2,0.1,0.3,0.1,0.5c0,0,0,0.1,0,0.1l-0.5,0c-0.5,0-1-0.1-1.4-0.3
				c-0.1-0.1-0.3-0.2-0.4-0.3c-0.8-0.6-1.2-1.4-1.2-2.4V0.5c0.5-0.3,1-0.5,1.5-0.5h0v2.2h1.6v0c0,0.5-0.1,0.9-0.5,1.2h-1.1v3.1
				c0,0.4,0.1,0.7,0.4,1c0.1,0,0.1,0.1,0.2,0.1l0.1,0.1c0,0,0.1,0,0.1,0.1c0,0,0.1,0,0.1,0c0.1,0,0.2,0.1,0.3,0.1c0,0,0.1,0,0.1,0
				c0,0,0.1,0,0.1,0h0c0,0,0,0,0,0C21.9,8.3,22,8.6,22.1,9"/>
			<path id="Path_137" class="st4" d="M27.9,5.2c-0.1-0.7-0.7-1.3-1.4-1.5c-0.2-0.1-0.3-0.1-0.5-0.1c-0.4,0-0.9,0.2-1.2,0.5
				c-0.4,0.3-0.6,0.7-0.7,1.1L27.9,5.2z M29.5,5.8c0,0.2,0,0.4,0,0.6H24c0.1,0.4,0.4,0.8,0.7,1.1C25.1,7.8,25.5,8,25.9,8
				c0.1,0,0.2,0,0.3,0c0.2,0,0.4,0,0.6-0.1c0.2-0.1,0.3-0.1,0.5-0.2c0.5,0.2,1,0.6,1.2,1.1l-0.1,0.1l0,0l-0.2,0.2c0,0,0,0-0.1,0
				c-0.1,0-0.1,0.1-0.2,0.1c0,0,0,0-0.1,0l-0.1,0c0,0-0.1,0-0.2,0.1c-0.1,0-0.1,0-0.2,0.1c0,0-0.1,0-0.2,0.1l-0.1,0l0,0l-0.1,0
				c0,0,0,0,0,0c0,0,0,0-0.1,0c0,0-0.1,0-0.1,0c-0.1,0-0.1,0-0.2,0c-0.1,0-0.1,0-0.2,0h-0.6C24.7,9.6,23.6,9,23,8
				c-0.3-0.5-0.5-1-0.6-1.6c-0.1-0.4-0.1-0.9,0-1.3c0.1-0.9,0.6-1.7,1.2-2.3C24.2,2.3,25.1,2,25.9,2c0.2,0,0.4,0,0.7,0.1
				c0.7,0.1,1.4,0.5,1.9,1.1c0.5,0.6,0.9,1.3,1,2C29.5,5.4,29.5,5.6,29.5,5.8"/>
			<path id="Path_138" class="st4" d="M41.6,2.6c1,0.7,1.6,1.9,1.6,3.2v3.8h-1.6V5.8c0-0.6-0.2-1.1-0.6-1.6
				c-0.7-0.8-1.8-0.9-2.6-0.2c-0.1,0.1-0.1,0.1-0.2,0.2c-0.4,0.4-0.6,0.9-0.6,1.5v3.9H36V5.7c0-0.6-0.2-1.1-0.6-1.5
				c-0.7-0.8-1.9-0.8-2.6-0.1c0,0-0.1,0.1-0.1,0.1C32.2,4.6,32,5.1,32,5.7v3.9h-1.6V2.4c0.3-0.2,0.6-0.3,1-0.4C31.5,2,31.7,2,31.9,2
				c0,0,0.1,0,0.1,0v0.6c1.2-0.9,2.8-0.9,4,0c0.3,0.2,0.6,0.5,0.8,0.8c0.2-0.3,0.5-0.6,0.8-0.8v0C38.8,1.7,40.4,1.8,41.6,2.6"/>
			<path id="Path_139" class="st4" d="M47.7,8c0.5,0,1.1-0.2,1.4-0.7c0.8-0.9,0.8-2.2,0-3.1c-0.7-0.8-1.9-0.9-2.6-0.2
				c-0.1,0.1-0.1,0.1-0.2,0.2c-0.8,0.9-0.8,2.2,0,3.1C46.6,7.8,47.1,8,47.7,8 M49.7,2c0,0,0.1,0,0.1,0c0.2,0,0.3,0,0.5,0.1
				c0.3,0.1,0.7,0.2,1,0.4v7.2h-1.6V9c-1.4,1-3.4,0.8-4.6-0.5c-1.4-1.5-1.4-3.9,0-5.4c1.2-1.3,3.1-1.5,4.6-0.5L49.7,2z"/>
			<path id="Path_140" class="st4" d="M55.9,9c0,0.2,0.1,0.3,0.1,0.5c0,0,0,0.1,0,0.1l-0.5,0c-0.5,0-1-0.1-1.4-0.3
				c-0.1-0.1-0.3-0.2-0.4-0.3c-0.8-0.6-1.2-1.4-1.2-2.4V0.5c0.5-0.3,1-0.5,1.5-0.5h0v2.2h1.6v0c0,0.5-0.1,0.9-0.5,1.2h-1.1v3.1
				c0,0.4,0.1,0.7,0.4,1c0.1,0,0.1,0.1,0.2,0.1l0.1,0.1c0,0,0.1,0,0.1,0.1c0,0,0.1,0,0.1,0c0.1,0,0.2,0.1,0.3,0.1c0,0,0.1,0,0.1,0
				c0,0,0.1,0,0.1,0h0c0,0,0,0,0,0C55.7,8.3,55.8,8.6,55.9,9"/>
			<path id="Path_141" class="st4" d="M56.3,2.4c0.3-0.2,0.6-0.3,1-0.4C57.5,2,57.6,2,57.8,2c0,0,0.1,0,0.1,0v7.6h-1.6V2.4z
				 M56.3,0.5c0.3-0.2,0.6-0.3,1-0.4c0.2,0,0.4-0.1,0.5-0.1c0,0,0.1,0,0.1,0v1.5c0,0-0.1,0-0.1,0c-0.2,0-0.4,0-0.5,0.1
				c-0.3,0.1-0.7,0.2-1,0.4V0.5z"/>
			<path id="Path_144" class="st2" d="M62.1,5.1l-2.8-4.8c0.4-0.1,0.8-0.1,1.2-0.1c0.2,0,0.5,0,0.7,0.1L62.8,3
				C62.7,3.8,62.5,4.4,62.1,5.1"/>
			<path id="Path_145" class="st5" d="M58.6,9.6c2.4,0,4.3-1.7,4.3-3.7l0,0.1c0-2.1,1.9-3.7,4.3-3.7L67.3,0C64.9,0,63,1.7,63,3.7h0
				c0,2.1-1.9,3.7-4.3,3.7L58.6,9.6z"/>
			<g id="Group_26" transform="translate(58.593 0)">
				<g>
					<defs>
						<path id="SVGID_1_" d="M4.4,3.7L4.4,3.7c0,2.1-1.9,3.7-4.3,3.7L0,9.6c2.4,0,4.3-1.7,4.3-3.7l0,0.1c0-2.1,1.9-3.7,4.3-3.7
							L8.7,0C6.3,0,4.4,1.7,4.4,3.7"/>
					</defs>
					<clipPath id="SVGID_00000144340193266098570940000001965076186629737105_">
						<use xlink:href="#SVGID_1_"  style="overflow:visible;"/>
					</clipPath>
					<g id="Group_25" style="clip-path:url(#SVGID_00000144340193266098570940000001965076186629737105_);">
						<path id="Path_146" class="st7" d="M-3.7,7.7c3.8,1.2,7.3,0.1,7.9-2.4s-2-5.5-5.8-6.7s-2.2,0.2-2.8,2.7S-7.5,6.5-3.7,7.7"/>
						<path id="Path_147" class="st7" d="M8.7,10.2c-2.8-1.5-4.5-3.9-4-6c0.4-1.6,1.9-2.6,4-2.8V10.2z"/>
					</g>
				</g>
			</g>
		</g>
	</g>
	<text transform="matrix(1 0 0 1 309.134 115.5)" class="st8 st9 st10">by</text>
</g>
</svg>
