<svg xmlns="http://www.w3.org/2000/svg" width="14.005" height="16" viewBox="0 0 14.005 16">
  <path id="Support_Maintenance" data-name="Support &amp; Maintenance" d="M15.969,12.4,14.747,9.332V8.394a6.407,6.407,0,0,0-6.13-6.309v4.4a3.094,3.094,0,0,1-.677,5.949A2.318,2.318,0,0,0,10.129,14h1.364a.885.885,0,1,1,0,.625H10.129a2.945,2.945,0,0,1-2.836-2.166,3.094,3.094,0,0,1-.99-5.94V2.425A6.418,6.418,0,0,0,4,13.137l0,4.948h7v-1.25h1.251a2.5,2.5,0,0,0,2.5-2.5v-1.25h.75A.5.5,0,0,0,15.969,12.4ZM12.993,10.02a.69.69,0,1,1,.687-.69A.688.688,0,0,1,12.993,10.02ZM5.97,9.368A1.532,1.532,0,1,1,7.5,10.9,1.534,1.534,0,0,1,5.97,9.368Z" transform="translate(-2 -2.085)"/>
</svg>
