<svg xmlns="http://www.w3.org/2000/svg" width="17.319" height="16" viewBox="0 0 17.319 16">
  <g id="Web_Development" data-name="Web Development" transform="translate(0 -15.992)">
    <g id="Group_5" data-name="Group 5" transform="translate(0 15.992)">
      <g id="Group_4" data-name="Group 4" transform="translate(0 0)">
        <path id="Path_7" data-name="Path 7" d="M11.667,29.865a.769.769,0,0,1-.23-.217.782.782,0,0,1-.073-.129H1.166V19.468H15.009v6.563a.772.772,0,0,1,.648.487.768.768,0,0,1,.519-.079V16.964a.973.973,0,0,0-.972-.972H.972A.973.973,0,0,0,0,16.964v12.75a.973.973,0,0,0,.972.972H11.579a.77.77,0,0,1,.089-.821Zm2.274-12.241a.359.359,0,0,1,.359-.359h.359a.359.359,0,0,1,.359.359v.407a.359.359,0,0,1-.359.359H14.3a.359.359,0,0,1-.359-.359Zm-1.669,0a.359.359,0,0,1,.359-.359h.359a.359.359,0,0,1,.359.359v.407a.359.359,0,0,1-.359.359h-.359a.359.359,0,0,1-.359-.359Zm-1.669,0a.359.359,0,0,1,.359-.359h.359a.359.359,0,0,1,.359.359v.407a.359.359,0,0,1-.359.359h-.359a.359.359,0,0,1-.359-.359Z" transform="translate(0 -15.992)"/>
        <path id="Path_8" data-name="Path 8" d="M293.856,276.86l-.108-.612a.151.151,0,0,0-.175-.123l-.544.1a2.041,2.041,0,0,0-.248-.428l.355-.423a.151.151,0,0,0-.019-.213l-.476-.4a.152.152,0,0,0-.214.019l-.355.423a2.031,2.031,0,0,0-.465-.169v-.552a.152.152,0,0,0-.151-.152h-.621a.152.152,0,0,0-.151.152v.552a2.029,2.029,0,0,0-.465.169l-.355-.423a.152.152,0,0,0-.213-.019l-.476.4a.151.151,0,0,0-.019.214l.355.423a2.046,2.046,0,0,0-.248.428l-.544-.1a.152.152,0,0,0-.175.123l-.108.612a.151.151,0,0,0,.123.175l.544.1a2.039,2.039,0,0,0,.086.487l-.478.276a.151.151,0,0,0-.055.207l.311.538a.151.151,0,0,0,.207.055l.479-.276a2.039,2.039,0,0,0,.379.318l-.189.519a.152.152,0,0,0,.09.194l.584.212a.151.151,0,0,0,.194-.091l.189-.519a2.063,2.063,0,0,0,.494,0l.189.519a.151.151,0,0,0,.194.091l.584-.212a.152.152,0,0,0,.09-.194l-.189-.519a2.054,2.054,0,0,0,.379-.318l.479.276a.152.152,0,0,0,.076.02.154.154,0,0,0,.039-.005.151.151,0,0,0,.092-.071l.311-.538a.151.151,0,0,0-.055-.207l-.478-.276a2.041,2.041,0,0,0,.085-.487l.544-.1a.151.151,0,0,0,.1-.062A.148.148,0,0,0,293.856,276.86Zm-2.709.972a.833.833,0,1,1,.833-.833A.833.833,0,0,1,291.147,277.832Z" transform="translate(-276.539 -263.672)"/>
        <g id="Group_3" data-name="Group 3" transform="translate(3.18 4.66)">
          <path id="Path_9" data-name="Path 9" d="M80.707,166.849a.507.507,0,0,0-.293-.459l-1.627-.756,1.627-.756a.507.507,0,0,0,.293-.459v-.013a.5.5,0,0,0-.506-.505.508.508,0,0,0-.213.047l-2.6,1.21a.507.507,0,0,0-.292.458v.036a.508.508,0,0,0,.293.459l2.6,1.21a.506.506,0,0,0,.719-.459v-.013Z" transform="translate(-77.094 -162.461)"/>
          <path id="Path_10" data-name="Path 10" d="M165.544,129.189a.507.507,0,0,0-.408-.207h-.013a.5.5,0,0,0-.482.351l-1.714,5.311a.506.506,0,0,0,.482.66h.013a.5.5,0,0,0,.481-.351l1.714-5.311A.507.507,0,0,0,165.544,129.189Z" transform="translate(-159.364 -128.982)"/>
          <path id="Path_11" data-name="Path 11" d="M230.814,165.158l-2.6-1.21a.506.506,0,0,0-.719.459v.013a.508.508,0,0,0,.293.459l1.627.756-1.627.756a.507.507,0,0,0-.293.459v.013a.506.506,0,0,0,.719.459l2.6-1.21a.508.508,0,0,0,.292-.458v-.036A.508.508,0,0,0,230.814,165.158Z" transform="translate(-221.291 -162.462)"/>
        </g>
      </g>
    </g>
  </g>
</svg>
