<svg xmlns="http://www.w3.org/2000/svg" width="16.958" height="16" viewBox="0 0 16.958 16">
  <path id="Digital_Advisory" data-name="Digital Advisory" d="M17.51,7.8h-.541V7.038A2.228,2.228,0,0,0,14.736,4.82H11.089V3A1.606,1.606,0,1,0,9.474,3V4.82H5.833A2.211,2.211,0,0,0,3.619,7.038V7.8H3.058A1.265,1.265,0,0,0,1.8,9.061v2.7a1.261,1.261,0,0,0,1.256,1.258h.561v.767A2.205,2.205,0,0,0,5.833,16h8.9a2.222,2.222,0,0,0,2.233-2.212v-.766h.541a1.256,1.256,0,0,0,1.251-1.258v-2.7A1.26,1.26,0,0,0,17.51,7.8Zm-12.1.844a1.47,1.47,0,1,1,1.47,1.47A1.47,1.47,0,0,1,5.41,8.643Zm6.877,5.364h-4a1.2,1.2,0,1,1,0-2.4h4a1.2,1.2,0,1,1,0,2.4Zm1.4-3.894a1.47,1.47,0,1,1,1.47-1.47A1.47,1.47,0,0,1,13.688,10.113Z" transform="translate(-1.802)"/>
</svg>
