<svg xmlns="http://www.w3.org/2000/svg" width="13.166" height="16" viewBox="0 0 13.166 16">
  <g id="Mobile_App_Development" data-name="Mobile App Development" transform="translate(-44.522)">
    <g id="Group_2" data-name="Group 2" transform="translate(44.522)">
      <g id="Group_1" data-name="Group 1" transform="translate(0)">
        <path id="Path_5" data-name="Path 5" d="M52.978,12.656H45.522V1.963h7.453v.8h1V1.745A1.751,1.751,0,0,0,52.232,0H46.267a1.75,1.75,0,0,0-1.745,1.745v12.51A1.75,1.75,0,0,0,46.267,16h5.965a1.752,1.752,0,0,0,1.746-1.745V12.637h-1Zm-3.729,2.471a.8.8,0,1,1,.8-.8A.8.8,0,0,1,49.249,15.127Z" transform="translate(-44.522)"/>
        <rect id="Rectangle_1" data-name="Rectangle 1" width="2.236" height="1.364" transform="translate(1.855 3.036)"/>
        <rect id="Rectangle_2" data-name="Rectangle 2" width="2.236" height="1.364" transform="translate(1.855 6.528)"/>
        <rect id="Rectangle_3" data-name="Rectangle 3" width="2.236" height="1.363" transform="translate(1.855 10.182)"/>
        <path id="Path_6" data-name="Path 6" d="M205.873,115.933a3.021,3.021,0,0,0-.466-1.13l.8-.8-.819-.816-.8.8a3.006,3.006,0,0,0-1.129-.466v-1.136H202.3v1.136a3.039,3.039,0,0,0-1.13.466l-.8-.8-.819.817.8.8a3.031,3.031,0,0,0-.464,1.129h-1.135v1.158h1.135a3.052,3.052,0,0,0,.465,1.129l-.8.8.819.816.8-.8a3.033,3.033,0,0,0,1.13.467v1.134h1.159V119.5a3.037,3.037,0,0,0,1.129-.466l.8.8.819-.816-.8-.8a3.037,3.037,0,0,0,.466-1.13h1.136v-1.158h-1.138Zm-2.991,1.839a1.262,1.262,0,1,1,1.261-1.261A1.261,1.261,0,0,1,202.882,117.772Z" transform="translate(-193.845 -108.806)"/>
      </g>
    </g>
  </g>
</svg>
