<svg xmlns="http://www.w3.org/2000/svg" width="18.953" height="16" viewBox="0 0 18.953 16">
  <path id="Social_Responsibility" data-name="Social Responsibility" d="M9.185,15.178l-2.413-1.4v-6.4H9.335A9.175,9.175,0,0,1,12.593,9.03h1.99a.946.946,0,0,1,.5,1.76,3.335,3.335,0,0,1-2.56.447.476.476,0,1,0,0,.95c.235.021.49-.042.716-.042a2.792,2.792,0,0,0,2.741-1.3l.3-.788,2.96-1.65a1.425,1.425,0,0,1,1.442,2.4,38.13,38.13,0,0,1-6.591,4.366A4.266,4.266,0,0,1,11.657,16,4.473,4.473,0,0,1,9.185,15.178Zm-6.679-.756a.359.359,0,0,1-.335-.378v-6.9a.359.359,0,0,1,.335-.378H5.667A.359.359,0,0,1,6,7.141v6.9a.359.359,0,0,1-.334.378ZM13.064,6.827c-.67-.644-1.76-1.455-1.8-2.461A1.1,1.1,0,0,1,12.436,3.22a1.576,1.576,0,0,1,1.184.653,1.576,1.576,0,0,1,1-.657,1.219,1.219,0,0,1,1.268,1.718,4.007,4.007,0,0,1-.681.863c-.319.329-.67.653-.918.9l-.672.668Zm5.167-1.7a4.587,4.587,0,1,0-9.174,0c0,1.267-.538,1.415-.538,0a5.125,5.125,0,0,1,10.249,0c0,.688-.127,1.007-.258,1.007S18.23,5.776,18.23,5.125Z" transform="translate(-2.172)"/>
</svg>
