<svg xmlns="http://www.w3.org/2000/svg" width="15.673" height="16" viewBox="0 0 15.673 16">
  <path id="Product_Engineering" data-name="Product Engineering" d="M7.787,15.889,2.1,13.045a.2.2,0,0,1-.111-.18v-3.1l-1.6-.846A.282.282,0,0,1,.348,8.9a.2.2,0,0,1-.072-.138.194.194,0,0,1,.047-.145l1.7-2.04L.05,4.7a.2.2,0,0,1,.019-.284A.2.2,0,0,1,.107,4.39L3.785,2.309c-.015.153-.025.314-.027.478L.519,4.629,2.355,6.338l1.738-.862a3.589,3.589,0,0,0,.187.369L2.694,6.63,7.939,9.387l5.255-2.762-1.706-.892c.071-.112.14-.231.2-.357l1.774.915,1.667-1.638L12.213,3.108c0-.084,0-.172,0-.261,0-.064,0-.13,0-.2l3.355,1.774a.225.225,0,0,1,.05.036.2.2,0,0,1,0,.285L13.807,6.52l1.749,2.094a.2.2,0,0,1-.025.282c-.013.009-.027.019-.041.027l-1.57.83v3.113a.2.2,0,0,1-.124.186L8.116,15.934a.2.2,0,0,1-.329-.045Zm-7-7.209L6.5,11.7l1.162-2L2.3,6.878ZM8.22,9.694l1.162,2L15.088,8.68l-1.508-1.8Zm.342-2.17a.215.215,0,0,1-.11-.121l-.267-.732a3.008,3.008,0,0,1-.7,0L7.22,7.4a.209.209,0,0,1-.11.121.214.214,0,0,1-.09.02.222.222,0,0,1-.074-.014l-.824-.3A.214.214,0,0,1,6,6.957l.266-.733a2.862,2.862,0,0,1-.534-.449l-.676.391a.217.217,0,0,1-.107.029.215.215,0,0,1-.185-.107l-.438-.758A.214.214,0,0,1,4.3,5.166a.218.218,0,0,1,.1-.13l.676-.39a2.876,2.876,0,0,1-.121-.687l-.769-.135a.212.212,0,0,1-.138-.088.218.218,0,0,1-.036-.16l.152-.862a.214.214,0,0,1,.248-.173l.768.135a2.879,2.879,0,0,1,.349-.6l-.5-.6a.213.213,0,0,1,.027-.3L5.726.609a.213.213,0,0,1,.3.026l.5.6A2.883,2.883,0,0,1,7.184.994V.214A.214.214,0,0,1,7.4,0h.877a.213.213,0,0,1,.213.214v.78a2.854,2.854,0,0,1,.656.238l.5-.6A.21.21,0,0,1,9.79.56a.214.214,0,0,1,.156.049l.671.563a.215.215,0,0,1,.075.145.212.212,0,0,1-.049.156l-.5.6a2.882,2.882,0,0,1,.35.6l.767-.135a.213.213,0,0,1,.248.173l.152.862a.208.208,0,0,1-.036.16.212.212,0,0,1-.138.088l-.769.136a2.89,2.89,0,0,1-.12.687l.675.389a.215.215,0,0,1,.1.13.217.217,0,0,1-.021.162l-.439.758a.211.211,0,0,1-.129.1.205.205,0,0,1-.055.008.22.22,0,0,1-.107-.029l-.676-.39a2.89,2.89,0,0,1-.534.448l.267.733a.214.214,0,0,1-.008.163.212.212,0,0,1-.12.111l-.824.3a.2.2,0,0,1-.074.014A.211.211,0,0,1,8.561,7.524Zm-1.9-3.752A1.176,1.176,0,1,0,7.836,2.6,1.176,1.176,0,0,0,6.661,3.772Z" transform="translate(0)"/>
</svg>
