<svg xmlns="http://www.w3.org/2000/svg" width="359.794" height="83.042" viewBox="0 0 359.794 83.042">
  <g id="cir-logo" transform="translate(-305.125 -733.13)">
    <path id="Path_1" data-name="Path 1" d="M341.162,761.536s8.769-11.019,3.377-23.244c0,0,13.33,6.179,17.872,15.341s5.338,11.633,4.3,19.36-7.064,26.755-17.824,28.781l-18.075-24.822,11.82-10.652Z" transform="translate(15.639 3.143)" fill="#1acfb3"/>
    <path id="Path_2" data-name="Path 2" d="M343.192,747.6l.14.861-.217.586-6.984,1.5s-12.616,3.293-13.332,13.65,10.589,17.726,11.588,17.734l3.322,4.561-10.077-2.36s-8.975-9.683-8.975-14.677,2.07-16.836,6.374-18.961S338.833,744.914,343.192,747.6Z" transform="translate(8.237 8.21)" fill="#2794ff"/>
    <path id="Path_3" data-name="Path 3" d="M345.26,737.122l2.55,2.469s-9.357-2.968-15.377,3.267-20.827,11.393-20.253,27.246c0,0,2.487,20.4,11.171,25.734s19.97,7.471,28.348,7.44l2.629,3.609L330.6,805.9l-14.58-11.323-6.213-12.922-.957-14.579,1.749-7.011,6.776-10.916,5.977-5.576s9.8-5.129,10.118-5.074,7.177-1.38,7.177-1.38Z" transform="translate(2.268 2.43)" fill="#2794ff"/>
    <g id="Group_2" data-name="Group 2" transform="translate(305.125 733.13)">
      <path id="Path_4" data-name="Path 4" d="M364.222,773.824c-.032.816-.092,1.623-.174,2.424l-.006.044a37.182,37.182,0,0,1-3.3,11.915l-.016.037a37.636,37.636,0,0,1-6.109,9.207l-.026.027a37.834,37.834,0,0,1-9.519,7.621l-.085-.117-.14-.19-2.091-2.873a33.716,33.716,0,0,0-2.862-60.6,24.171,24.171,0,0,0-1.712-4.548c-.034-.068-.068-.137-.1-.2a35.8,35.8,0,0,1,3.874,1.469l.037.018a37.2,37.2,0,0,1,10.3,6.832l.029.026q1,.939,1.947,1.958a37.8,37.8,0,0,1,4.949,6.689l.019.034a36.951,36.951,0,0,1,4.332,11.582l.008.037A37.832,37.832,0,0,1,364.222,773.824Z" transform="translate(-285.064 -731.041)" fill="#1acfb3"/>
      <g id="Group_1" data-name="Group 1">
        <path id="Path_5" data-name="Path 5" d="M354.563,811.183l.2,4.445-12.357.544-.19-4.445a.081.081,0,0,1-.042-.008,37.427,37.427,0,0,1-10.652-2.947c-.018-.008-.026-.016-.034-.016h-.008l-2.453,3.711-10.307-6.824,2.461-3.721v-.008c-.008-.008-.024-.016-.032-.024a38.124,38.124,0,0,1-6.882-8.636.04.04,0,0,0-.018-.034l-4.173,1.564L305.735,783.2l4.165-1.556v-.008c0-.008-.008-.024-.008-.032a37.833,37.833,0,0,1-.65-8.62q.036-1.223.174-2.421v-.04l-4.291-1.194,3.3-11.913L312.7,758.6v-.008c.01-.008.01-.018.018-.034a37.065,37.065,0,0,1,6.141-9.236v-.01l-2.774-3.481,9.682-7.7,2.766,3.475a36.835,36.835,0,0,1,10.431-3.9l-.2-4.437,3.169-.14a28.1,28.1,0,0,1,5.031,3.753c.008,0,.016.008.024.018l.222.222a20.32,20.32,0,0,1,3.055,3.761,34.189,34.189,0,0,0-3.557-.188,33.7,33.7,0,1,0,8.464,66.33l2.453,3.367c-.989.3-2,.568-3.021.782A.082.082,0,0,1,354.563,811.183Z" transform="translate(-305.125 -733.13)" fill="#2794ff"/>
      </g>
      <path id="Path_6" data-name="Path 6" d="M345.261,745.7c-.068.407-.145.79-.227,1.153a21.124,21.124,0,0,1-.837,2.769,18.224,18.224,0,1,0-6.915,35.683l3.1,4.258c-.306.014-.616.019-.928.019a22.325,22.325,0,1,1,5.806-43.883Z" transform="translate(-297.818 -725.942)" fill="#2794ff"/>
      <path id="Path_7" data-name="Path 7" d="M352.188,804.163a33.7,33.7,0,1,1-8.464-66.33,34.189,34.189,0,0,1,3.557.188,16.858,16.858,0,0,1,2.034,4.743,29.726,29.726,0,0,0-4.4-.5c-.386-.016-.774-.026-1.152-.026a29.35,29.35,0,1,0,5.671,58.156Z" transform="translate(-302.14 -730.267)" fill="#39a6ff"/>
      <path id="Path_8" data-name="Path 8" d="M362.082,770.51a33.736,33.736,0,0,1-17.592,29.609l-2.54-3.493-4.207-5.774L335.23,787.4a18.223,18.223,0,0,0,6.038-29.774c-.328-.327-.666-.644-1.018-.941a29.24,29.24,0,0,0,1.372-4.125c.051-.208.1-.417.151-.628a26.57,26.57,0,0,0,.66-7.161,24.644,24.644,0,0,0-.8-5.257,33.727,33.727,0,0,1,20.454,30.995Z" transform="translate(-286.798 -729.243)" fill="#1adcb3"/>
      <path id="Path_9" data-name="Path 9" d="M342.664,748.094a22.682,22.682,0,0,1-1.855,3.806,14.114,14.114,0,0,0-17.014,13.827,13.955,13.955,0,0,0,.113,1.789,14.149,14.149,0,0,0,8.009,10.993l3.834,5.267a18.223,18.223,0,1,1,6.915-35.683Z" transform="translate(-296.284 -724.409)" fill="#39a6ff"/>
      <path id="Path_10" data-name="Path 10" d="M350.825,764.012A18.24,18.24,0,0,1,339.449,780.9l-2.47-3.391L328.3,765.594a20.193,20.193,0,0,0,10.036-6.017,29.625,29.625,0,0,0,4.225-5.57,30.539,30.539,0,0,0,1.91-3.819c.352.3.69.615,1.018.941A18.153,18.153,0,0,1,350.825,764.012Z" transform="translate(-291.017 -722.745)" fill="#1aeeb3"/>
    </g>
    <g id="Group_5" data-name="Group 5" transform="translate(399.21 743.437)">
      <g id="Group_3" data-name="Group 3" transform="translate(0 46.951)">
        <path id="Path_11" data-name="Path 11" d="M372.2,780.151a7.31,7.31,0,0,1-3,.541c-3.2,0-5.6-2.024-5.6-5.75a5.634,5.634,0,0,1,5.925-5.954,6.136,6.136,0,0,1,2.693.5l-.36,1.194a5.4,5.4,0,0,0-2.284-.468c-2.666,0-4.427,1.7-4.427,4.683,0,2.777,1.6,4.551,4.35,4.551a5.95,5.95,0,0,0,2.405-.465Z" transform="translate(-363.607 -768.559)" fill="#003472"/>
        <path id="Path_12" data-name="Path 12" d="M377.334,775.155a3.99,3.99,0,0,1-4.049,4.336,3.877,3.877,0,0,1-3.916-4.2,3.979,3.979,0,0,1,4.044-4.32A3.852,3.852,0,0,1,377.334,775.155Zm-6.458.1c0,1.786,1.023,3.131,2.468,3.131,1.421,0,2.482-1.327,2.482-3.176,0-1.377-.693-3.119-2.455-3.119C371.633,772.085,370.876,773.705,370.876,775.25Z" transform="translate(-360.099 -767.349)" fill="#003472"/>
        <path id="Path_13" data-name="Path 13" d="M375.281,777.8a4.034,4.034,0,0,0,1.963.579c1.081,0,1.583-.531,1.583-1.213,0-.711-.431-1.086-1.514-1.491-1.472-.532-2.169-1.334-2.165-2.309a2.518,2.518,0,0,1,2.819-2.389,3.943,3.943,0,0,1,1.995.5l-.368,1.076a3.207,3.207,0,0,0-1.671-.479c-.874,0-1.348.5-1.348,1.118,0,.674.478.975,1.546,1.388,1.4.523,2.133,1.231,2.137,2.447,0,1.445-1.121,2.455-3.045,2.455a4.653,4.653,0,0,1-2.289-.568Z" transform="translate(-356.719 -767.349)" fill="#003472"/>
        <path id="Path_14" data-name="Path 14" d="M381.343,769.633v2.344h2.127V773.1h-2.127v4.389c0,1.015.291,1.588,1.12,1.588a2.971,2.971,0,0,0,.857-.106l.068,1.124a3.78,3.78,0,0,1-1.322.2,2.074,2.074,0,0,1-1.6-.627,3.115,3.115,0,0,1-.574-2.125V773.1h-1.263v-1.123h1.263v-1.961Z" transform="translate(-354.462 -768.166)" fill="#003472"/>
        <path id="Path_15" data-name="Path 15" d="M384.19,770.008a.894.894,0,0,1-.943.922.884.884,0,0,1-.894-.922.9.9,0,0,1,.922-.922A.889.889,0,0,1,384.19,770.008Zm-1.655,10.447V772.31h1.474v8.145Z" transform="translate(-352.195 -768.499)" fill="#003472"/>
        <path id="Path_16" data-name="Path 16" d="M384.732,773.361c0-.851-.029-1.525-.068-2.2h1.308l.082,1.34h.042a3.007,3.007,0,0,1,2.693-1.525c1.118,0,2.87.674,2.87,3.472v4.859h-1.474v-4.7c0-1.316-.5-2.42-1.884-2.42a2.132,2.132,0,0,0-1.995,1.52,2.324,2.324,0,0,0-.1.687v4.908h-1.474Z" transform="translate(-350.788 -767.349)" fill="#003472"/>
        <path id="Path_17" data-name="Path 17" d="M397.558,771.16c-.04.576-.069,1.237-.069,2.23v4.728c0,1.885-.385,3.016-1.162,3.729a4.384,4.384,0,0,1-2.968.978,5.267,5.267,0,0,1-2.719-.671l.372-1.139a4.585,4.585,0,0,0,2.4.651c1.512,0,2.624-.791,2.624-2.854v-.907H396a2.892,2.892,0,0,1-2.589,1.372c-2.03,0-3.473-1.728-3.473-3.985,0-2.761,1.8-4.318,3.678-4.318a2.708,2.708,0,0,1,2.542,1.406h.032l.063-1.221Zm-1.541,3.2a2.261,2.261,0,0,0-.082-.663,2.141,2.141,0,0,0-2.08-1.577c-1.413,0-2.426,1.2-2.426,3.089,0,1.593.824,2.933,2.412,2.933a2.168,2.168,0,0,0,2.061-1.527,2.635,2.635,0,0,0,.116-.788Z" transform="translate(-347.578 -767.349)" fill="#003472"/>
        <path id="Path_18" data-name="Path 18" d="M402.715,779.305l-.13-1.03h-.045a3.027,3.027,0,0,1-2.492,1.215,2.324,2.324,0,0,1-2.487-2.337c0-1.972,1.749-3.055,4.894-3.033v-.174a1.677,1.677,0,0,0-1.853-1.879,3.962,3.962,0,0,0-2.122.608l-.336-.986a5.127,5.127,0,0,1,2.688-.714c2.489,0,3.1,1.7,3.1,3.333v3.047a12.7,12.7,0,0,0,.122,1.95Zm-.23-4.159c-1.6-.034-3.438.254-3.438,1.829a1.3,1.3,0,0,0,1.382,1.417,2.04,2.04,0,0,0,1.985-1.364,1.537,1.537,0,0,0,.071-.466Z" transform="translate(-342.937 -767.349)" fill="#003472"/>
        <path id="Path_19" data-name="Path 19" d="M409.623,777.005c0,.854.027,1.585.068,2.23h-1.31L408.3,777.9h-.04a3.046,3.046,0,0,1-2.7,1.517c-1.274,0-2.806-.714-2.806-3.57v-4.76h1.474v4.5c0,1.551.484,2.608,1.821,2.608a2.154,2.154,0,0,0,1.959-1.361,2.258,2.258,0,0,0,.135-.759V771.09h1.474Z" transform="translate(-339.771 -767.279)" fill="#003472"/>
        <path id="Path_20" data-name="Path 20" d="M410.483,769.633v2.344h2.127V773.1h-2.127v4.389c0,1.015.291,1.588,1.12,1.588a2.971,2.971,0,0,0,.857-.106l.068,1.124a3.779,3.779,0,0,1-1.322.2,2.074,2.074,0,0,1-1.6-.627,3.115,3.115,0,0,1-.574-2.125V773.1h-1.263v-1.123h1.263v-1.961Z" transform="translate(-336.722 -768.166)" fill="#003472"/>
        <path id="Path_21" data-name="Path 21" d="M419.139,775.155a3.99,3.99,0,0,1-4.049,4.336,3.877,3.877,0,0,1-3.916-4.2,3.979,3.979,0,0,1,4.044-4.32A3.851,3.851,0,0,1,419.139,775.155Zm-6.458.1c0,1.786,1.023,3.131,2.469,3.131,1.419,0,2.481-1.327,2.481-3.176,0-1.377-.693-3.119-2.453-3.119C413.438,772.085,412.681,773.705,412.681,775.25Z" transform="translate(-334.649 -767.349)" fill="#003472"/>
        <path id="Path_22" data-name="Path 22" d="M417.106,773.361c0-.851-.027-1.525-.068-2.2h1.289l.077,1.311h.042a2.81,2.81,0,0,1,2.571-1.5,2.4,2.4,0,0,1,2.3,1.633h.032a3.3,3.3,0,0,1,.92-1.06,2.775,2.775,0,0,1,1.792-.573c1.086,0,2.688.7,2.688,3.534v4.8H427.3V774.7c0-1.578-.581-2.511-1.766-2.511a1.935,1.935,0,0,0-1.763,1.332,2.439,2.439,0,0,0-.121.743v5.042H422.2v-4.887c0-1.3-.573-2.23-1.692-2.23a2.048,2.048,0,0,0-1.845,1.478,2.311,2.311,0,0,0-.113.729v4.91h-1.446Z" transform="translate(-331.079 -767.349)" fill="#003472"/>
        <path id="Path_23" data-name="Path 23" d="M430.357,779.305l-.13-1.03h-.043a3.027,3.027,0,0,1-2.492,1.215,2.323,2.323,0,0,1-2.487-2.337c0-1.972,1.747-3.055,4.894-3.033v-.174a1.679,1.679,0,0,0-1.855-1.879,3.957,3.957,0,0,0-2.12.608l-.338-.986a5.137,5.137,0,0,1,2.69-.714c2.489,0,3.1,1.7,3.1,3.333v3.047a12.682,12.682,0,0,0,.124,1.95Zm-.23-4.159c-1.6-.034-3.438.254-3.438,1.829a1.3,1.3,0,0,0,1.384,1.417,2.037,2.037,0,0,0,1.984-1.364,1.537,1.537,0,0,0,.071-.466Z" transform="translate(-326.108 -767.349)" fill="#003472"/>
        <path id="Path_24" data-name="Path 24" d="M432.525,769.633v2.344h2.128V773.1h-2.128v4.389c0,1.015.293,1.588,1.121,1.588a2.971,2.971,0,0,0,.857-.106l.068,1.124a3.793,3.793,0,0,1-1.322.2,2.072,2.072,0,0,1-1.6-.627,3.114,3.114,0,0,1-.576-2.125V773.1h-1.261v-1.123h1.261v-1.961Z" transform="translate(-323.302 -768.166)" fill="#003472"/>
        <path id="Path_25" data-name="Path 25" d="M435.373,770.008a.893.893,0,0,1-.941.922.883.883,0,0,1-.895-.922.9.9,0,0,1,.92-.922A.887.887,0,0,1,435.373,770.008Zm-1.654,10.447V772.31h1.474v8.145Z" transform="translate(-321.035 -768.499)" fill="#003472"/>
        <path id="Path_26" data-name="Path 26" d="M443.486,775.155a3.99,3.99,0,0,1-4.051,4.336,3.876,3.876,0,0,1-3.914-4.2,3.978,3.978,0,0,1,4.044-4.32A3.852,3.852,0,0,1,443.486,775.155Zm-6.458.1c0,1.786,1.023,3.131,2.468,3.131,1.421,0,2.482-1.327,2.482-3.176,0-1.377-.695-3.119-2.455-3.119C437.783,772.085,437.028,773.705,437.028,775.25Z" transform="translate(-319.827 -767.349)" fill="#003472"/>
        <path id="Path_27" data-name="Path 27" d="M441.453,773.361c0-.851-.029-1.525-.068-2.2h1.308l.082,1.34h.042a3,3,0,0,1,2.693-1.525c1.118,0,2.87.674,2.87,3.472v4.859h-1.474v-4.7c0-1.316-.5-2.42-1.882-2.42a2.133,2.133,0,0,0-2,1.52,2.326,2.326,0,0,0-.1.687v4.908h-1.474Z" transform="translate(-316.257 -767.349)" fill="#003472"/>
        <path id="Path_28" data-name="Path 28" d="M456.46,780.519c-.327-.327-.619-.647-1.059-1.107a4.686,4.686,0,0,1-3.316,1.292,3.218,3.218,0,0,1-3.489-3.184,3.746,3.746,0,0,1,2.214-3.314l0-.053a3.919,3.919,0,0,1-.946-2.368,2.763,2.763,0,0,1,2.888-2.8,2.36,2.36,0,0,1,2.51,2.41c0,1.192-.7,2.133-2.49,3.028l0,.056c.962,1.115,2.037,2.347,2.767,3.158a8.394,8.394,0,0,0,1.092-3.312h1.342a8.561,8.561,0,0,1-1.635,4.188c.61.65,1.2,1.282,1.881,2.009Zm-1.792-1.953c-.674-.737-1.937-2.127-3.187-3.573a2.762,2.762,0,0,0-1.467,2.3,2.23,2.23,0,0,0,2.315,2.294A3.139,3.139,0,0,0,454.667,778.565Zm-3.451-6.924a3.218,3.218,0,0,0,.864,2.042c1.152-.655,1.884-1.26,1.884-2.22a1.339,1.339,0,0,0-1.319-1.47A1.485,1.485,0,0,0,451.217,771.641Z" transform="translate(-311.867 -768.562)" fill="#003472"/>
        <path id="Path_29" data-name="Path 29" d="M463.2,779.01a5.647,5.647,0,0,1-2.338.471,3.881,3.881,0,0,1-4.064-4.162,4.148,4.148,0,0,1,4.376-4.342,4.761,4.761,0,0,1,2.059.434l-.33,1.137a3.6,3.6,0,0,0-1.733-.393,2.827,2.827,0,0,0-2.873,3.084,2.8,2.8,0,0,0,2.838,3.049,4.319,4.319,0,0,0,1.813-.391Z" transform="translate(-306.873 -767.348)" fill="#003472"/>
        <path id="Path_30" data-name="Path 30" d="M469.182,775.155a3.989,3.989,0,0,1-4.049,4.336,3.877,3.877,0,0,1-3.916-4.2,3.979,3.979,0,0,1,4.044-4.32A3.851,3.851,0,0,1,469.182,775.155Zm-6.458.1c0,1.786,1.023,3.131,2.47,3.131,1.419,0,2.481-1.327,2.481-3.176,0-1.377-.693-3.119-2.453-3.119C463.481,772.085,462.724,773.705,462.724,775.25Z" transform="translate(-304.184 -767.349)" fill="#003472"/>
        <path id="Path_31" data-name="Path 31" d="M467.149,773.361c0-.851-.027-1.525-.068-2.2h1.31l.08,1.34h.042a3.008,3.008,0,0,1,2.693-1.525c1.118,0,2.87.674,2.87,3.472v4.859H472.6v-4.7c0-1.316-.5-2.42-1.882-2.42a2.134,2.134,0,0,0-2,1.52,2.324,2.324,0,0,0-.1.687v4.908h-1.474Z" transform="translate(-300.614 -767.349)" fill="#003472"/>
        <path id="Path_32" data-name="Path 32" d="M474.812,769.633v2.344h2.128V773.1h-2.128v4.389c0,1.015.293,1.588,1.121,1.588a2.971,2.971,0,0,0,.858-.106l.068,1.124a3.8,3.8,0,0,1-1.323.2,2.071,2.071,0,0,1-1.6-.627,3.114,3.114,0,0,1-.576-2.125V773.1H472.1v-1.123h1.261v-1.961Z" transform="translate(-297.559 -768.166)" fill="#003472"/>
        <path id="Path_33" data-name="Path 33" d="M475.96,773.7c0-.962-.024-1.781-.067-2.537h1.3l.056,1.6h.053a2.47,2.47,0,0,1,2.267-1.784,1.737,1.737,0,0,1,.412.042v1.393a2.434,2.434,0,0,0-.5-.042,2.068,2.068,0,0,0-1.982,1.894,3.917,3.917,0,0,0-.059.692v4.352H475.96Z" transform="translate(-295.25 -767.349)" fill="#003472"/>
        <path id="Path_34" data-name="Path 34" d="M486.64,775.155a3.989,3.989,0,0,1-4.049,4.336,3.876,3.876,0,0,1-3.914-4.2,3.978,3.978,0,0,1,4.045-4.32A3.851,3.851,0,0,1,486.64,775.155Zm-6.458.1c0,1.786,1.025,3.131,2.469,3.131,1.421,0,2.482-1.327,2.482-3.176,0-1.377-.7-3.119-2.455-3.119C480.941,772.085,480.183,773.705,480.183,775.25Z" transform="translate(-293.555 -767.349)" fill="#003472"/>
        <path id="Path_35" data-name="Path 35" d="M484.582,768.721h1.474v11.956h-1.474Z" transform="translate(-289.96 -768.721)" fill="#003472"/>
      </g>
      <g id="Group_4" data-name="Group 4">
        <path id="Path_36" data-name="Path 36" d="M377.531,767.207c-4.416,0-7.167-3.378-7.167-7.484s2.751-7.482,7.167-7.482a6.769,6.769,0,0,1,6.08,3.378l5.769-3.328a13.872,13.872,0,0,0-11.849-6.392,13.823,13.823,0,1,0,11.849,21.2l-5.769-3.272A6.782,6.782,0,0,1,377.531,767.207Z" transform="translate(-363.607 -735.664)" fill="#003472"/>
        <path id="Path_37" data-name="Path 37" d="M394.632,745.9a13.822,13.822,0,1,0,13.93,13.824A13.638,13.638,0,0,0,394.632,745.9Zm0,21.308c-4.36,0-7.117-3.378-7.117-7.484s2.757-7.482,7.117-7.482c4.423,0,7.174,3.378,7.174,7.482S399.055,767.207,394.632,767.207Z" transform="translate(-353.166 -735.664)" fill="#003472"/>
        <path id="Path_38" data-name="Path 38" d="M412.693,757.122c-2.08-.467-5.613-.621-5.613-2.962,0-1.975,1.974-2.7,3.9-2.7,2.49,0,3.794,1.354,4.1,2.7l5.975-1.454c-1.092-4.571-5.558-6.807-10.079-6.807-6.186,0-10.341,3.274-10.341,8.261,0,4.521,2.6,6.968,7.688,8,3.118.677,6.913.573,6.913,3.063,0,1.77-1.559,2.758-4.316,2.758-3.843,0-4.881-1.765-5.092-2.857L399.5,767.1c1.192,4.416,6.286,6.441,11.327,6.441,7.378,0,11.173-3.584,11.173-8.782C422,760.294,419.139,758.525,412.693,757.122Z" transform="translate(-341.758 -735.664)" fill="#003472"/>
        <path id="Path_39" data-name="Path 39" d="M430.567,754.4v-6.031h-5.615v-5.508h-6.6v5.508h-3.739V754.4h3.739v10.707c0,5.452,2.7,9.974,9.458,9.974a8.619,8.619,0,0,0,2.757-.362v-6.03c-.471.05-1.092.106-1.559.106-3.639,0-4.056-1.77-4.056-4.783V754.4Z" transform="translate(-332.556 -737.513)" fill="#003472"/>
        <path id="Path_40" data-name="Path 40" d="M434.461,750.393v26.35h6.6v-26.35Zm3.274-10.856a3.506,3.506,0,1,0,3.533,3.478A3.486,3.486,0,0,0,437.735,739.537Z" transform="translate(-320.601 -739.537)" fill="#003472"/>
        <path id="Path_41" data-name="Path 41" d="M457.021,754.4v-6.031h-5.613v-5.508h-6.6v5.508h-3.745V754.4h3.745v10.707c0,5.452,2.7,9.974,9.453,9.974a8.6,8.6,0,0,0,2.756-.362v-6.03c-.465.05-1.092.106-1.557.106-3.639,0-4.056-1.77-4.056-4.783V754.4Z" transform="translate(-316.451 -737.513)" fill="#003472"/>
        <path id="Path_42" data-name="Path 42" d="M467.437,750.836V746.52h-6.6v26.35h6.6V762.009c0-4.888.988-9.875,8.782-8.937V745.9A10.467,10.467,0,0,0,467.437,750.836Z" transform="translate(-304.416 -735.664)" fill="#003472"/>
        <path id="Path_43" data-name="Path 43" d="M473.383,750.393v26.35h6.6v-26.35Zm3.272-10.856a3.506,3.506,0,1,0,3.535,3.478A3.48,3.48,0,0,0,476.655,739.537Z" transform="translate(-296.903 -739.537)" fill="#003472"/>
        <path id="Path_44" data-name="Path 44" d="M501.411,746.52v3.43A9.568,9.568,0,0,0,493.1,745.9c-7.949,0-12.78,6.081-12.78,12.888s4.831,12.886,12.78,12.886a9.559,9.559,0,0,0,8.316-4.056v1.924c0,5.143-2.806,7.951-7.9,7.951-.2,0-.394-.006-.587-.016v5.874c.265.011.532.018.8.018,9.353,0,14.291-5.981,14.291-13.359V746.52ZM494.083,765.8a7.017,7.017,0,1,1,7.018-7.016A6.736,6.736,0,0,1,494.083,765.8Z" transform="translate(-292.558 -735.664)" fill="#003472"/>
        <path id="Path_45" data-name="Path 45" d="M515.648,749.459a8.78,8.78,0,0,0-7.695,3.845V740.051h-6.546V776.43h6.546V761.774c0-3.012,1.715-5.923,5.615-5.923,3.739,0,5.142,2.545,5.142,5.923V776.43h6.6V760.421C525.312,754.863,522.3,749.459,515.648,749.459Z" transform="translate(-279.717 -739.224)" fill="#003472"/>
        <path id="Path_46" data-name="Path 46" d="M534.806,754.4v-6.031h-5.615v-5.508h-6.6v5.508h-3.739V754.4h3.739v10.707c0,5.452,2.7,9.974,9.458,9.974a8.612,8.612,0,0,0,2.758-.362v-6.03c-.471.05-1.092.106-1.564.106-3.634,0-4.051-1.77-4.051-4.783V754.4Z" transform="translate(-269.097 -737.513)" fill="#003472"/>
      </g>
    </g>
  </g>
</svg>
