<svg xmlns="http://www.w3.org/2000/svg" width="21.328" height="16" viewBox="0 0 21.328 16">
  <path id="Automotive_" data-name="Automotive " d="M1.794,14.206a6.125,6.125,0,0,1,0-8.662,6.215,6.215,0,0,1,1.062-.85V4.683c0-.014,0-.028,0-.042V4.092a.776.776,0,0,1,.783-.822.971.971,0,0,1,.251.035l.9.247.956-2.33A2.133,2.133,0,0,1,7.566,0H16.6a2.133,2.133,0,0,1,1.825,1.223l.958,2.333.909-.25a.972.972,0,0,1,.251-.035.776.776,0,0,1,.782.822v.548a1,1,0,0,1-1,1h-.083l.142.347a7.374,7.374,0,0,1,.463,2.345v4.673a1,1,0,0,1-1,1H18.565a1,1,0,0,1-1-1V11.865H11.919A6.131,6.131,0,0,1,6.125,16,6.085,6.085,0,0,1,1.794,14.206ZM1.422,9.952a4.814,4.814,0,0,0,4.621,4.977,4.814,4.814,0,0,0,4.621-4.977A4.814,4.814,0,0,0,6.043,4.976,4.814,4.814,0,0,0,1.422,9.952ZM15.4,8.256V9.588a.368.368,0,0,0,.368.368h2.775a.368.368,0,0,0,.368-.368V8.256a.368.368,0,0,0-.368-.368H15.772A.368.368,0,0,0,15.4,8.256ZM6.126,3.749a6.087,6.087,0,0,1,4.331,1.794c.076.077.152.157.231.246h7.494a.466.466,0,0,0,.464-.692L17.185,1.539a1.237,1.237,0,0,0-1.059-.71H8.043a1.237,1.237,0,0,0-1.059.71L6.076,3.751h.03Zm-.264,9.686a.274.274,0,0,1-.266-.207l-.168-.669a2.7,2.7,0,0,1-.55-.228l-.591.354a.274.274,0,0,1-.335-.041l-.472-.472a.273.273,0,0,1-.041-.335l.354-.591a2.709,2.709,0,0,1-.228-.551L2.9,10.529a.274.274,0,0,1-.207-.266V9.6A.273.273,0,0,1,2.9,9.33l.669-.168a2.7,2.7,0,0,1,.228-.55l-.355-.591a.274.274,0,0,1,.042-.335l.472-.472a.274.274,0,0,1,.335-.042l.591.355a2.7,2.7,0,0,1,.55-.228L5.6,6.63a.274.274,0,0,1,.266-.207h.668a.274.274,0,0,1,.266.207l.167.669a2.709,2.709,0,0,1,.551.228L8.1,7.172a.274.274,0,0,1,.335.042l.472.472a.273.273,0,0,1,.041.335L8.6,8.612a2.7,2.7,0,0,1,.228.55l.669.168A.273.273,0,0,1,9.7,9.6v.668a.274.274,0,0,1-.207.266l-.669.167a2.709,2.709,0,0,1-.228.551l.354.591a.273.273,0,0,1-.041.335l-.472.472a.274.274,0,0,1-.335.041l-.591-.354a2.7,2.7,0,0,1-.55.228l-.168.669a.274.274,0,0,1-.266.207ZM5.1,9.929a1.1,1.1,0,1,0,1.1-1.1A1.1,1.1,0,0,0,5.1,9.929Z"/>
</svg>
