<svg xmlns="http://www.w3.org/2000/svg" width="21.909" height="16" viewBox="0 0 21.909 16">
  <g id="Life_sciences_healthcare" data-name="Life sciences &amp; healthcare" transform="translate(-69 -463)">
    <path id="online-diagnosis-report-icon" d="M3.674,14.652h.709a.488.488,0,0,1-.173-.372V.489A.491.491,0,0,1,4.7,0H23.208a.491.491,0,0,1,.49.489V14.28a.488.488,0,0,1-.173.372h.709a.674.674,0,0,1,0,1.348H3.674a.674.674,0,0,1,0-1.348ZM22.9,2.037H5.012V14.025H22.9ZM7.479.789a.295.295,0,1,1-.295.295A.3.3,0,0,1,7.479.789Zm-1.031,0a.295.295,0,1,1-.295.295A.294.294,0,0,1,6.448.789Zm-1.032,0a.295.295,0,1,1-.295.295A.3.3,0,0,1,5.416.789Zm7.711,14.176h1.684a.286.286,0,0,1,0,.571H13.126A.286.286,0,0,1,13.126,14.965Z" transform="translate(66 463)" fill-rule="evenodd"/>
    <g id="heart-care-svgrepo-com" transform="translate(75.405 452.397)">
      <path id="Path_18" data-name="Path 18" d="M.292,18.712H3.266l.468-2.2a.237.237,0,0,1,.466.012L4.589,19l.243-.775a.237.237,0,0,1,.433-.045l.341.605,3.335-.026a2.8,2.8,0,0,0,.28-.858,2.952,2.952,0,0,0-.6-2.354,2.379,2.379,0,0,0-1.871-.811A2.565,2.565,0,0,0,4.63,15.9,2.565,2.565,0,0,0,2.514,14.74a2.379,2.379,0,0,0-1.871.811,2.952,2.952,0,0,0-.6,2.354A2.8,2.8,0,0,0,.292,18.712Z" transform="translate(0)"/>
      <path id="Path_19" data-name="Path 19" d="M17.142,82.051a.242.242,0,0,1-.208-.121l-.141-.25L16.41,82.9a.237.237,0,0,1-.226.166h-.018a.237.237,0,0,1-.217-.2L15.6,80.652l-.241,1.133a.237.237,0,0,1-.232.188H12.253a6.928,6.928,0,0,0,2.134,1.7,7.856,7.856,0,0,1,.89.578c.83.677.905,1.018.908,1.032a.12.12,0,0,0,.117.106.116.116,0,0,0,.118-.106s.065-.345.908-1.033a7.856,7.856,0,0,1,.89-.578,7.094,7.094,0,0,0,2.094-1.647Z" transform="translate(-11.672 -62.787)"/>
    </g>
  </g>
</svg>
