<svg xmlns="http://www.w3.org/2000/svg" width="16.982" height="16" viewBox="0 0 16.982 16">
  <g id="culture" transform="translate(0 -14.798)">
    <g id="Group_7" data-name="Group 7" transform="translate(6.968 14.798)">
      <g id="Group_6" data-name="Group 6" transform="translate(0 0)">
        <path id="Path_21" data-name="Path 21" d="M211.591,14.8a1.523,1.523,0,1,0,1.523,1.523A1.525,1.525,0,0,0,211.591,14.8Z" transform="translate(-210.068 -14.798)"/>
      </g>
    </g>
    <g id="Group_9" data-name="Group 9" transform="translate(5.997 18.037)">
      <g id="Group_8" data-name="Group 8" transform="translate(0 0)">
        <path id="Path_22" data-name="Path 22" d="M185.778,114.785l-.646-1.939a.554.554,0,0,0-.525-.379h-2.586a.554.554,0,0,0-.525.379l-.646,1.939a.554.554,0,0,0,.525.729h3.879A.554.554,0,0,0,185.778,114.785Z" transform="translate(-180.82 -112.467)"/>
      </g>
    </g>
    <g id="Group_11" data-name="Group 11" transform="translate(0.97 19.655)">
      <g id="Group_10" data-name="Group 10" transform="translate(0 0)">
        <path id="Path_23" data-name="Path 23" d="M30.77,161.234a1.523,1.523,0,1,0,1.523,1.523A1.525,1.525,0,0,0,30.77,161.234Z" transform="translate(-29.247 -161.234)"/>
      </g>
    </g>
    <g id="Group_13" data-name="Group 13" transform="translate(0 22.894)">
      <g id="Group_12" data-name="Group 12" transform="translate(0 0)">
        <path id="Path_24" data-name="Path 24" d="M4.958,261.222l-.646-1.939a.554.554,0,0,0-.525-.379H1.2a.554.554,0,0,0-.525.379l-.646,1.939a.554.554,0,0,0,.525.729H4.433A.554.554,0,0,0,4.958,261.222Z" transform="translate(0 -258.904)"/>
      </g>
    </g>
    <g id="Group_15" data-name="Group 15" transform="translate(6.968 24.512)">
      <g id="Group_14" data-name="Group 14" transform="translate(0 0)">
        <path id="Path_25" data-name="Path 25" d="M211.592,307.672a1.523,1.523,0,1,0,1.523,1.523A1.525,1.525,0,0,0,211.592,307.672Z" transform="translate(-210.069 -307.672)"/>
      </g>
    </g>
    <g id="Group_17" data-name="Group 17" transform="translate(5.997 27.751)">
      <g id="Group_16" data-name="Group 16" transform="translate(0 0)">
        <path id="Path_26" data-name="Path 26" d="M185.779,407.657l-.646-1.939a.554.554,0,0,0-.525-.379h-2.586a.554.554,0,0,0-.525.379l-.646,1.939a.554.554,0,0,0,.525.729h3.879A.554.554,0,0,0,185.779,407.657Z" transform="translate(-180.821 -405.339)"/>
      </g>
    </g>
    <g id="Group_19" data-name="Group 19" transform="translate(3.175 16.653)">
      <g id="Group_18" data-name="Group 18" transform="translate(0 0)">
        <path id="Path_27" data-name="Path 27" d="M98.836,71.049a.554.554,0,0,0-.74-.258,6.829,6.829,0,0,0-2.249,1.754.554.554,0,1,0,.849.711,5.713,5.713,0,0,1,1.881-1.468A.554.554,0,0,0,98.836,71.049Z" transform="translate(-95.718 -70.736)"/>
      </g>
    </g>
    <g id="Group_21" data-name="Group 21" transform="translate(12.965 19.655)">
      <g id="Group_20" data-name="Group 20" transform="translate(0 0)">
        <path id="Path_28" data-name="Path 28" d="M392.411,161.235a1.523,1.523,0,1,0,1.523,1.523A1.525,1.525,0,0,0,392.411,161.235Z" transform="translate(-390.888 -161.235)"/>
      </g>
    </g>
    <g id="Group_23" data-name="Group 23" transform="translate(11.995 22.894)">
      <g id="Group_22" data-name="Group 22">
        <path id="Path_29" data-name="Path 29" d="M366.6,261.221l-.646-1.939a.554.554,0,0,0-.525-.379h-2.586a.554.554,0,0,0-.525.379l-.647,1.939a.554.554,0,0,0,.525.729h3.879A.554.554,0,0,0,366.6,261.221Z" transform="translate(-361.642 -258.903)"/>
      </g>
    </g>
    <g id="Group_25" data-name="Group 25" transform="translate(10.634 16.653)">
      <g id="Group_24" data-name="Group 24" transform="translate(0 0)">
        <path id="Path_30" data-name="Path 30" d="M323.671,72.548a6.829,6.829,0,0,0-2.249-1.754.554.554,0,1,0-.482,1,5.713,5.713,0,0,1,1.881,1.468.554.554,0,1,0,.849-.711Z" transform="translate(-320.627 -70.738)"/>
      </g>
    </g>
    <g id="Group_27" data-name="Group 27" transform="translate(10.634 26.224)">
      <g id="Group_26" data-name="Group 26" transform="translate(0 0)">
        <path id="Path_31" data-name="Path 31" d="M323.6,359.421a.554.554,0,0,0-.78.069,5.712,5.712,0,0,1-1.881,1.468.554.554,0,0,0,.482,1,6.828,6.828,0,0,0,2.249-1.754A.554.554,0,0,0,323.6,359.421Z" transform="translate(-320.627 -359.292)"/>
      </g>
    </g>
    <g id="Group_29" data-name="Group 29" transform="translate(3.175 26.224)">
      <g id="Group_28" data-name="Group 28">
        <path id="Path_32" data-name="Path 32" d="M98.579,360.958A5.713,5.713,0,0,1,96.7,359.49a.554.554,0,1,0-.849.711,6.828,6.828,0,0,0,2.249,1.754.554.554,0,1,0,.482-1Z" transform="translate(-95.719 -359.291)"/>
      </g>
    </g>
  </g>
</svg>
