<svg xmlns="http://www.w3.org/2000/svg" width="14.794" height="16" viewBox="0 0 14.794 16">
  <path id="Leadership" d="M5.846,3.358a.314.314,0,0,0,.2-.018l-.118-.675a.915.915,0,0,1,.2-.4.637.637,0,0,1,.353-.192c.185-.014.24.122.426.242a3,3,0,0,0,1.744.493l-.144.583a.282.282,0,0,0,.157.015c.112-.01.181,0,.2.036.026.053,0,.162-.076.34L8.4,4.413a2.978,2.978,0,0,1-.468.637.951.951,0,0,1-.681.271.924.924,0,0,1-.643-.258,2.868,2.868,0,0,1-.454-.6l-.34-.54h0v0a.8.8,0,0,1-.16-.387.184.184,0,0,1,.015-.086A.132.132,0,0,1,5.717,3.4a.284.284,0,0,1,.129-.04ZM6.158,5.9l.608,1.787.306-1.061-.15-.164A.245.245,0,0,1,6.878,6.2c.081-.161.249-.131.406-.131s.367-.031.419.175a.274.274,0,0,1-.053.215l-.15.164.306,1.061L8.355,5.9c.4.357,1.572.429,2.01.672a1.15,1.15,0,0,1,.364.308,1.47,1.47,0,0,1,.271.8l.092,1.446a.4.4,0,0,1-.419.393H3.842a.4.4,0,0,1-.419-.393l.092-1.446a1.474,1.474,0,0,1,.272-.8,1.135,1.135,0,0,1,.364-.308c.436-.244,1.611-.317,2.008-.674Zm1.9,4.551h6v3.112h-1.2V11.648h-4.8v1.725H6.78V11.648H1.939v1.917H.743V10.452H8.055Zm5.4,3.864a1.341,1.341,0,1,1-1.342,1.342,1.34,1.34,0,0,1,1.342-1.342Zm-12.114,0A1.341,1.341,0,1,1,0,15.656a1.342,1.342,0,0,1,1.34-1.34Zm6.078,0a1.341,1.341,0,1,1-1.34,1.342,1.34,1.34,0,0,1,1.34-1.342ZM8.887,3.208l.021-.869a1.319,1.319,0,0,0-.332-.832A1.93,1.93,0,0,0,6.6,1.112a1.626,1.626,0,0,0-.308.15,1.3,1.3,0,0,0-.574.732,1.245,1.245,0,0,0-.042.219,8.769,8.769,0,0,0,.015.958.443.443,0,0,0-.089.044.345.345,0,0,0-.121.14.41.41,0,0,0-.035.182,1,1,0,0,0,.194.5l.34.54a3.051,3.051,0,0,0,.492.642,1.133,1.133,0,0,0,.789.317,1.151,1.151,0,0,0,.829-.329,3.2,3.2,0,0,0,.506-.683l.387-.637.007-.013h0a.661.661,0,0,0,.074-.528.278.278,0,0,0-.174-.139Z" transform="translate(0 -0.998)" fill-rule="evenodd"/>
</svg>
