<svg xmlns="http://www.w3.org/2000/svg" width="16" height="16" viewBox="0 0 16 16">
  <path id="About_Softude" data-name="About Softude" d="M8,16a8,8,0,1,1,8-8A8.009,8.009,0,0,1,8,16ZM9.086,5.078a.466.466,0,0,0-.3.1L7.412,7.027a2.088,2.088,0,0,0-.194.386,1.312,1.312,0,0,0-.087.534l.536,6.679,0,.08a.39.39,0,0,0,.225.27A.334.334,0,0,0,8.006,15a.367.367,0,0,0,.337-.232l.017-.048-.006-.056c.011-.091,1.06-9.144,1.057-9.279A.329.329,0,0,0,9.2,5.089.605.605,0,0,0,9.086,5.078ZM8.242,1.426A1.353,1.353,0,1,0,9.594,2.778,1.355,1.355,0,0,0,8.242,1.426Z"/>
</svg>
