<svg xmlns="http://www.w3.org/2000/svg" width="18.099" height="16" viewBox="0 0 18.099 16">
  <path id="Staff_Augmentation_" data-name="Staff Augmentation " d="M2.149,19.215,2.3,15.9c-.255.127-.765,1.148-.765,1.148a4.819,4.819,0,0,0-.383,1.913L0,18.582.382,16.67s.765-2.678,2.3-2.678h3.06c1.53,0,2.3,2.678,2.3,2.678l.382,1.912-1.148.383a4.817,4.817,0,0,0-.382-1.913s-.51-1.02-.765-1.148l.155,3.474a5.183,5.183,0,0,1-4.126-.163Zm11.933-.2a5.276,5.276,0,0,1-2.25-.595l.146-3.305c-.255.118-.765,1.12-.765,1.12a4.7,4.7,0,0,0-.382,1.9l-1.148-.423.382-1.9s.765-2.651,2.3-2.6l3.06.109c1.53.055,2.3,2.76,2.3,2.76l.382,1.926-1.148.341a4.944,4.944,0,0,0-.382-1.926,4.648,4.648,0,0,0-.765-1.175l.155,3.48a5.052,5.052,0,0,1-1.69.288Q14.176,19.016,14.082,19.013ZM8.348,16.1a4.432,4.432,0,0,0-1.372-2.032l.076-1.73c-.255.127-.675,1.237-.445,1.387l-1.242-.228c.844-.306,1.014-.817,1.082-1.75l-.065-.58c.278-.231.688-.741,1.052-.741H10.5a1.5,1.5,0,0,1,.98.4l.179.66c0,.78.594,1.014,1.215,1.391L12,12.855a1.323,1.323,0,0,0-.627.135,2.1,2.1,0,0,0-.5-.654l.043.968a5.46,5.46,0,0,0-1.215,2.146l-.14.695-.41.016A5.209,5.209,0,0,1,8.348,16.1ZM2.3,11.583A1.913,1.913,0,1,1,4.208,13.5,1.913,1.913,0,0,1,2.3,11.583Zm11.6,1.189a2,2,0,0,1-1.913-1.981,1.833,1.833,0,0,1,1.913-1.845A2,2,0,0,1,15.8,10.927a1.832,1.832,0,0,1-1.843,1.846ZM7.053,8.014A1.913,1.913,0,1,1,8.966,9.927,1.913,1.913,0,0,1,7.053,8.014Zm-3.271,1a.219.219,0,0,1-.2-.229A5.358,5.358,0,0,1,13.868,7.021l.21-.512a.217.217,0,0,1,.283-.117h0a.218.218,0,0,1,.115.282l-.408,1a.217.217,0,0,1-.283.118l-1-.408h0a.216.216,0,0,1,.167-.4l.512.21a4.924,4.924,0,0,0-9.458,1.62.219.219,0,0,1-.216.2Z" transform="translate(0 -3.73)"/>
</svg>
