<svg xmlns="http://www.w3.org/2000/svg" width="19.257" height="16" viewBox="0 0 19.257 16">
  <path id="Digital_Transformation" data-name="Digital Transformation" d="M1.536,14.928H2.52a.37.37,0,0,1-.1-.259V6.538a.372.372,0,0,1,.372-.372H18.378a.374.374,0,0,1,.372.372v8.13a.379.379,0,0,1-.106.259H19.72a.536.536,0,1,1,0,1.072H1.536a.536.536,0,1,1,0-1.072Zm13.7-11.122H14.184V5.459h-.739V3.435a.368.368,0,0,1,.37-.37h1.429a1.086,1.086,0,1,1-.01.74Zm-7.628.259V5.459H6.869V4.435H6.019a1.086,1.086,0,1,1,0-.742H7.248a.367.367,0,0,1,.261.109A.372.372,0,0,1,7.611,4.065ZM5.718,0a1.086,1.086,0,1,0,.995,1.524H8.886V5.459h.74v-4.3a.368.368,0,0,0-.37-.372H6.762A1.085,1.085,0,0,0,5.724,0Zm6.018.017a1.086,1.086,0,0,0-.37,2.109V5.459h.742V2.126A1.086,1.086,0,0,0,11.736.017ZM8.842,8.3a1.759,1.759,0,0,1,.27-.941h3.03a1.756,1.756,0,0,1,.27.941,1.785,1.785,0,1,1-3.57,0Zm6.938.067v.374a.638.638,0,0,1-.635.637h-.652a3.947,3.947,0,0,1-.393,1.038l.429.426a.637.637,0,0,1,0,.9l-.519.529a.638.638,0,0,1-.9,0l-.4-.4a3.918,3.918,0,0,1-1.074.465v.54a.64.64,0,0,1-.637.637h-.751a.64.64,0,0,1-.637-.637v-.533a3.921,3.921,0,0,1-1.085-.462l-.386.386a.637.637,0,0,1-.9,0l-.529-.529a.637.637,0,0,1,0-.9l.415-.417a3.914,3.914,0,0,1-.4-1.053H6.109a.638.638,0,0,1-.635-.637V7.988a.637.637,0,0,1,.605-.633H8.209a2.572,2.572,0,0,0-.154.875v.265a2.558,2.558,0,1,0,5.117,0V8.23a2.572,2.572,0,0,0-.154-.875h2.157a.637.637,0,0,1,.605.633v.375ZM3.051,6.746H18.162v7.818H3.051Zm6.964,8.446h1.228a.209.209,0,0,1,.2.2h0a.209.209,0,0,1-.2.214H10.015a.209.209,0,0,1-.208-.214h0a.208.208,0,0,1,.208-.208Z" transform="translate(-1)" fill-rule="evenodd"/>
</svg>
