<svg xmlns="http://www.w3.org/2000/svg" xmlns:xlink="http://www.w3.org/1999/xlink" width="374.724" height="134.356" viewBox="0 0 374.724 134.356">
  <defs>
    <clipPath id="clip-path">
      <path id="Path_7" data-name="Path 7" d="M301.514,55.587H676.125V189.776H301.514Z" transform="translate(-301.514 -55.587)" fill="none"/>
    </clipPath>
  </defs>
  <g id="cmmi-5" transform="translate(-372 -369)">
    <g id="Group_10" data-name="Group 10" transform="translate(70.521 313.465)">
      <path id="Path_1" data-name="Path 1" d="M301.514,189.776V55.587H676.125V189.776H301.514Z" transform="translate(0.077 0.115)" fill="none"/>
      <path id="Path_2" data-name="Path 2" d="M301.514,55.587H676.125V189.776H301.514Z" transform="translate(0.077 0.115)" fill="none"/>
      <path id="Path_3" data-name="Path 3" d="M645.9,56.652a29.075,29.075,0,0,1,29.074,29.074h0v73.8A29.075,29.075,0,0,1,645.9,188.6H331.673A29.076,29.076,0,0,1,302.6,159.53h0v-73.8a29.076,29.076,0,0,1,29.077-29.074Zm0-1.117H331.673a30.283,30.283,0,0,0-30.195,30.191h0v73.8a30.288,30.288,0,0,0,30.195,30.194H645.9a30.285,30.285,0,0,0,30.191-30.194h0v-73.8A30.28,30.28,0,0,0,645.9,55.535" transform="translate(0 0)" fill="#1fa3dd"/>
      <path id="Path_4" data-name="Path 4" d="M308.041,152.4h182.7V55.587h-182.7Z" transform="translate(14.447 0.115)" fill="none"/>
      <g id="Group_1" data-name="Group 1" transform="translate(322.486 55.914)">
        <path id="Path_82" data-name="Path 82" d="M2.6-22.685A23.3,23.3,0,0,0,26.065.65a22.309,22.309,0,0,0,15.8-6.305,1.238,1.238,0,0,0,.065-1.755L37.9-11.57a1.2,1.2,0,0,0-1.625,0,15.6,15.6,0,0,1-9.945,3.705A14.719,14.719,0,0,1,11.765-22.88c0-8.19,6.175-15.145,14.495-15.145A15.378,15.378,0,0,1,36.27-34.19a1.041,1.041,0,0,0,1.625,0l3.965-4.1a1.208,1.208,0,0,0-.065-1.82,22,22,0,0,0-15.73-6.045A23.413,23.413,0,0,0,2.6-22.685Z" transform="translate(0 68)" fill="#213168"/>
        <path id="Path_83" data-name="Path 83" d="M2.925-1.5A1.191,1.191,0,0,0,4.16,0h5.85a1.258,1.258,0,0,0,1.17-.975L14.95-25.61h.2L26.65-.065a1.168,1.168,0,0,0,1.1.715h1.17a1.105,1.105,0,0,0,1.1-.715L41.405-25.61H41.6L45.435-.975A1.41,1.41,0,0,0,46.67,0h5.915a1.129,1.129,0,0,0,1.17-1.5l-7.67-43.68a1.1,1.1,0,0,0-1.17-.975h-1.04a1.121,1.121,0,0,0-1.1.65L28.47-14.82h-.195L13.975-45.5a1.185,1.185,0,0,0-1.1-.65H11.83a1.1,1.1,0,0,0-1.17.975Z" transform="translate(44.552 68)" fill="#213168"/>
        <path id="Path_84" data-name="Path 84" d="M2.925-1.5A1.191,1.191,0,0,0,4.16,0h5.85a1.258,1.258,0,0,0,1.17-.975L14.95-25.61h.2L26.65-.065a1.168,1.168,0,0,0,1.1.715h1.17a1.105,1.105,0,0,0,1.1-.715L41.405-25.61H41.6L45.435-.975A1.41,1.41,0,0,0,46.67,0h5.915a1.129,1.129,0,0,0,1.17-1.5l-7.67-43.68a1.1,1.1,0,0,0-1.17-.975h-1.04a1.121,1.121,0,0,0-1.1.65L28.47-14.82h-.195L13.975-45.5a1.185,1.185,0,0,0-1.1-.65H11.83a1.1,1.1,0,0,0-1.17.975Z" transform="translate(102.858 68)" fill="#213168"/>
        <path id="Path_85" data-name="Path 85" d="M6.1-1.273A1.318,1.318,0,0,0,7.37,0H13.6a1.318,1.318,0,0,0,1.273-1.273V-45.627A1.318,1.318,0,0,0,13.6-46.9H7.37A1.318,1.318,0,0,0,6.1-45.627Z" transform="translate(161.16 70)" fill="#213168"/>
      </g>
      <path id="Path_5" data-name="Path 5" d="M368.8,74.874a4.473,4.473,0,1,1-4.473,4.473,4.473,4.473,0,0,1,4.473-4.473m0,8.142a3.712,3.712,0,1,0-3.7-3.723v.01a3.758,3.758,0,0,0,3.7,3.714m-1.53-5.728a.206.206,0,0,1,.17-.243.143.143,0,0,1,.074,0h1.767a1.371,1.371,0,0,1,1.524,1.207l.01.09h0v.077a1.293,1.293,0,0,1-.964,1.364h0l.727,1.454c.08.08,0,.247-.077.327h-.493c-.077,0-.157-.08-.234-.17h0l-.727-1.53h-.884v1.476a.227.227,0,0,1-.2.247H367.6a.224.224,0,0,1-.247-.2v-.048Zm1.934,1.812a.66.66,0,0,0,.724-.589l0-.058h0v-.08a.663.663,0,0,0-.589-.724l-.061,0H368V79.1Z" transform="translate(138.376 42.577)" fill="#1c2c5b"/>
      <g id="Group_4" data-name="Group 4" transform="translate(301.591 55.702)">
        <g id="Group_3" data-name="Group 3" clip-path="url(#clip-path)">
          <g id="Group_2" data-name="Group 2" transform="translate(281.496 21.563)">
            <path id="Path_6" data-name="Path 6" d="M389.437,62.78a.515.515,0,0,1,.554-.458h.288a.488.488,0,0,1,.525.458h0V87.464a.512.512,0,0,1-.551.432h-.263a.513.513,0,0,1-.554-.432Z" transform="translate(-389.437 -62.322)" fill="#1ea4de"/>
          </g>
        </g>
      </g>
      <path id="Path_8" data-name="Path 8" d="M301.514,55.587H676.125V189.776H301.514Z" transform="translate(0.077 0.115)" fill="none"/>
      <path id="Path_9" data-name="Path 9" d="M369.575,70.819H505.322v31.738H369.575Z" transform="translate(149.922 33.65)" fill="none"/>
      <g id="Group_5" data-name="Group 5" transform="translate(519.554 100.721)">
        <path id="Path_67" data-name="Path 67" d="M.408,0H2.5a.723.723,0,0,0,.7-.48L4.368-3.072h7.176L12.72-.48a.69.69,0,0,0,.7.48H15.5a.424.424,0,0,0,.408-.624L8.52-16.776a.408.408,0,0,0-.408-.264h-.24a.431.431,0,0,0-.408.264L0-.624A.424.424,0,0,0,.408,0ZM5.544-5.736,7.9-11.016h.072l2.4,5.28Z" transform="translate(0 25)" fill="#213168"/>
        <path id="Path_68" data-name="Path 68" d="M2.184-.456A.456.456,0,0,0,2.64,0H4.848A.472.472,0,0,0,5.3-.456V-6.1h3a5.4,5.4,0,0,0,5.352-5.4A5.368,5.368,0,0,0,8.28-16.8H2.64a.456.456,0,0,0-.456.456ZM5.3-9.024v-4.824H8.088A2.394,2.394,0,0,1,10.56-11.52a2.474,2.474,0,0,1-2.472,2.5Z" transform="translate(16.801 25)" fill="#213168"/>
        <path id="Path_69" data-name="Path 69" d="M2.184-.456A.456.456,0,0,0,2.64,0H4.848A.472.472,0,0,0,5.3-.456V-6.1h3a5.4,5.4,0,0,0,5.352-5.4A5.368,5.368,0,0,0,8.28-16.8H2.64a.456.456,0,0,0-.456.456ZM5.3-9.024v-4.824H8.088A2.394,2.394,0,0,1,10.56-11.52a2.474,2.474,0,0,1-2.472,2.5Z" transform="translate(31.805 25)" fill="#213168"/>
        <path id="Path_70" data-name="Path 70" d="M2.184-.456A.456.456,0,0,0,2.64,0H4.848A.472.472,0,0,0,5.3-.456v-6.12H7.968L11.16-.216A.411.411,0,0,0,11.544,0h2.52a.454.454,0,0,0,.408-.7l-3.288-6.1a5.3,5.3,0,0,0,3.552-4.848A5.2,5.2,0,0,0,9.5-16.8H2.64a.456.456,0,0,0-.456.456ZM5.328-9.144V-13.92H9.24a2.388,2.388,0,0,1,2.376,2.328A2.444,2.444,0,0,1,9.24-9.144Z" transform="translate(46.807 25)" fill="#213168"/>
        <path id="Path_71" data-name="Path 71" d="M.408,0H2.5a.723.723,0,0,0,.7-.48L4.368-3.072h7.176L12.72-.48a.69.69,0,0,0,.7.48H15.5a.424.424,0,0,0,.408-.624L8.52-16.776a.408.408,0,0,0-.408-.264h-.24a.431.431,0,0,0-.408.264L0-.624A.424.424,0,0,0,.408,0ZM5.544-5.736,7.9-11.016h.072l2.4,5.28Z" transform="translate(63.693 25)" fill="#213168"/>
        <path id="Path_72" data-name="Path 72" d="M2.184-.456A.472.472,0,0,0,2.64,0H4.872a.472.472,0,0,0,.456-.456V-16.344a.472.472,0,0,0-.456-.456H2.64a.472.472,0,0,0-.456.456Z" transform="translate(80.527 25)" fill="#213168"/>
        <path id="Path_73" data-name="Path 73" d="M1.265-1.564A7.4,7.4,0,0,0,6.325.23c3.243,0,5.29-2.185,5.29-4.554,0-2.967-2.576-4.3-4.807-5.2-1.863-.759-2.714-1.495-2.714-2.576a1.832,1.832,0,0,1,2.024-1.61,7.567,7.567,0,0,1,3.2,1.265.605.605,0,0,0,.805-.276l.874-1.311a.57.57,0,0,0-.138-.759,8.1,8.1,0,0,0-4.6-1.541c-3.657,0-5.175,2.369-5.175,4.416,0,2.714,2.162,4.094,4.324,4.968,1.932.782,2.921,1.587,2.921,2.76A1.92,1.92,0,0,1,6.233-2.415,7.617,7.617,0,0,1,2.76-3.841a.533.533,0,0,0-.782.161L1.15-2.254C.943-1.886,1.058-1.771,1.265-1.564Z" transform="translate(88.332 24)" fill="#213168"/>
        <path id="Path_74" data-name="Path 74" d="M2.184-.456A.456.456,0,0,0,2.64,0h9.768a.456.456,0,0,0,.456-.456V-2.424a.456.456,0,0,0-.456-.456H5.3v-4.2h5.928a.456.456,0,0,0,.456-.456V-9.528a.472.472,0,0,0-.456-.456H5.3V-13.92h7.1a.456.456,0,0,0,.456-.456v-1.968a.456.456,0,0,0-.456-.456H2.64a.456.456,0,0,0-.456.456Z" transform="translate(102.044 25)" fill="#213168"/>
        <path id="Path_75" data-name="Path 75" d="M2.184-.456A.451.451,0,0,0,2.616,0H8.3a8.435,8.435,0,0,0,8.424-8.424A8.425,8.425,0,0,0,8.3-16.8H2.616a.451.451,0,0,0-.432.456Zm3.1-2.472V-13.9H8.016a5.292,5.292,0,0,1,5.4,5.472,5.3,5.3,0,0,1-5.4,5.5Z" transform="translate(116.945 25)" fill="#213168"/>
      </g>
      <path id="Path_52" data-name="Path 52" d="M1.561,3.578V-12.376h1.3V3.578Z" transform="translate(488.517 162.269)" fill="#313232"/>
      <path id="Path_10" data-name="Path 10" d="M369.025,87.066h57.836v-24.6H369.025Z" transform="translate(148.711 15.256)" fill="none"/>
      <path id="Path_11" data-name="Path 11" d="M369.025,87.066h57.836v-24.6H369.025Z" transform="translate(148.711 15.256)" fill="none"/>
      <path id="Path_76" data-name="Path 76" d="M1.843-.361A.357.357,0,0,0,2.185,0h4.37a6.678,6.678,0,0,0,6.669-6.669A6.67,6.67,0,0,0,6.555-13.3H2.185a.357.357,0,0,0-.342.361ZM3.781-1.805V-11.5H6.289a4.672,4.672,0,0,1,4.826,4.826A4.692,4.692,0,0,1,6.289-1.805Z" transform="translate(526.573 95.535)" fill="#00a5e5"/>
      <path id="Path_77" data-name="Path 77" d="M1.843-.361A.361.361,0,0,0,2.2,0H9.8a.361.361,0,0,0,.361-.361V-1.406A.361.361,0,0,0,9.8-1.767h-6V-5.852H8.873a.361.361,0,0,0,.361-.361V-7.277a.374.374,0,0,0-.361-.361H3.8v-3.876h6a.361.361,0,0,0,.361-.361v-1.064A.361.361,0,0,0,9.8-13.3H2.2a.361.361,0,0,0-.361.361Z" transform="translate(541.528 95.535)" fill="#00a5e5"/>
      <path id="Path_78" data-name="Path 78" d="M5.871-.019A.386.386,0,0,0,6.194.19h.19a.362.362,0,0,0,.323-.209L12.54-12.806a.335.335,0,0,0-.323-.494H10.868a.349.349,0,0,0-.323.209L6.365-3.686H6.251l-4.18-9.405a.373.373,0,0,0-.323-.209H.4a.335.335,0,0,0-.323.494Z" transform="translate(553.378 95.535)" fill="#00a5e5"/>
      <path id="Path_12" data-name="Path 12" d="M391.962,87.066h60.374v-24.6H391.962Z" transform="translate(199.209 15.256)" fill="none"/>
      <path id="Path_13" data-name="Path 13" d="M391.962,87.066h60.374v-24.6H391.962Z" transform="translate(199.209 15.256)" fill="none"/>
      <path id="Path_79" data-name="Path 79" d="M.931-.437A.341.341,0,0,0,1.292,0H2.527a.37.37,0,0,0,.342-.266L4.237-8.759h.076L7.752-.019A.341.341,0,0,0,8.075.19h.342A.323.323,0,0,0,8.74-.019l3.42-8.74h.057L13.623-.266A.4.4,0,0,0,13.984,0h1.235a.324.324,0,0,0,.342-.437L13.224-13.205a.384.384,0,0,0-.342-.285h-.3a.362.362,0,0,0-.323.209L8.3-3.572H8.227L4.256-13.281a.386.386,0,0,0-.323-.209h-.3a.384.384,0,0,0-.342.285Z" transform="translate(600.05 95.535)" fill="#00a5e5"/>
      <path id="Path_80" data-name="Path 80" d="M1.843-.361A.361.361,0,0,0,2.2,0H8.968a.361.361,0,0,0,.361-.361V-1.406a.361.361,0,0,0-.361-.361H3.819V-12.939a.374.374,0,0,0-.361-.361H2.2a.361.361,0,0,0-.361.361Z" transform="translate(617.54 95.535)" fill="#00a5e5"/>
      <text id="_" data-name=" " transform="translate(627.582 94.535)" fill="#00a5e5" font-size="19" font-family="BrandonGrotesque-Medium, Brandon Grotesque" font-weight="500" style="isolation: isolate"><tspan x="0" y="0"> </tspan></text>
      <path id="Path_81" data-name="Path 81" d="M1.178-1.387A4.688,4.688,0,0,0,4.883.19a4.374,4.374,0,0,0,4.5-4.351c0-2.489-1.577-4.1-4.37-4.1H3.1v-3H7.619a.361.361,0,0,0,.361-.361v-.931a.361.361,0,0,0-.361-.361H1.748a.361.361,0,0,0-.361.361v5.32a.632.632,0,0,0,.589.665H4.883A2.374,2.374,0,0,1,7.524-4.142,2.629,2.629,0,0,1,4.94-1.463,3.817,3.817,0,0,1,2.3-2.7c-.152-.171-.3-.133-.456,0-.247.209-.456.456-.7.665C.912-1.805.931-1.672,1.178-1.387Z" transform="translate(632.016 95.535)" fill="#00a5e5"/>
      <path id="Path_14" data-name="Path 14" d="M309.945,108.277H463.022v-24.6H309.945Z" transform="translate(18.64 61.955)" fill="none"/>
      <path id="Path_15" data-name="Path 15" d="M309.945,108.277H463.022v-24.6H309.945Z" transform="translate(18.64 61.955)" fill="none"/>
      <path id="Path_37" data-name="Path 37" d="M.368,0h.64A.294.294,0,0,0,1.28-.176l1.168-2.64h5.68L9.312-.176A.294.294,0,0,0,9.584,0h.64A.282.282,0,0,0,10.5-.416L5.664-11.184a.287.287,0,0,0-.272-.176h-.16a.287.287,0,0,0-.272.176L.1-.416A.282.282,0,0,0,.368,0ZM2.9-3.808,5.232-9.056H5.36c.784,1.744,1.552,3.5,2.336,5.248Z" transform="translate(330.82 162.535)"/>
      <path id="Path_38" data-name="Path 38" d="M2.256-.368A2.907,2.907,0,0,0,3.968.16,3.161,3.161,0,0,0,7.04-3.184,3.181,3.181,0,0,0,4.016-6.56a2.853,2.853,0,0,0-1.856.672l-.112-.3c-.064-.16-.112-.208-.256-.208H1.456a.315.315,0,0,0-.3.3V4.5a.315.315,0,0,0,.3.3h.5a.315.315,0,0,0,.3-.3Zm.016-1.1v-3.3A2.174,2.174,0,0,1,3.9-5.552,2.127,2.127,0,0,1,5.92-3.2a2.142,2.142,0,0,1-2.1,2.288A2.682,2.682,0,0,1,2.272-1.472Z" transform="translate(343.427 162.535)"/>
      <path id="Path_39" data-name="Path 39" d="M2.256-.368A2.907,2.907,0,0,0,3.968.16,3.161,3.161,0,0,0,7.04-3.184,3.181,3.181,0,0,0,4.016-6.56a2.853,2.853,0,0,0-1.856.672l-.112-.3c-.064-.16-.112-.208-.256-.208H1.456a.315.315,0,0,0-.3.3V4.5a.315.315,0,0,0,.3.3h.5a.315.315,0,0,0,.3-.3Zm.016-1.1v-3.3A2.174,2.174,0,0,1,3.9-5.552,2.127,2.127,0,0,1,5.92-3.2a2.142,2.142,0,0,1-2.1,2.288A2.682,2.682,0,0,1,2.272-1.472Z" transform="translate(352.588 162.535)"/>
      <path id="Path_40" data-name="Path 40" d="M1.136-.3a.315.315,0,0,0,.3.3h.5a.315.315,0,0,0,.3-.3V-4.576a2.056,2.056,0,0,1,1.744-.9,1.65,1.65,0,0,1,.624.128c.16.064.3.064.384-.144l.192-.544c.16-.448-.64-.528-1.12-.528a2.366,2.366,0,0,0-1.92.848l-.128-.464A.272.272,0,0,0,1.744-6.4h-.3a.315.315,0,0,0-.3.3Z" transform="translate(361.748 162.535)"/>
      <path id="Path_41" data-name="Path 41" d="M.672-1.936A1.943,1.943,0,0,0,2.64.16,2.774,2.774,0,0,0,4.624-.672l.128.432c.048.144.1.24.272.24h.3a.315.315,0,0,0,.3-.3V-3.856c0-1.872-.4-2.7-2.032-2.7a6.013,6.013,0,0,0-2.224.416.258.258,0,0,0-.176.352l.128.4c.048.144.144.224.3.16a5.627,5.627,0,0,1,1.92-.352c.912,0,1.056.544,1.04,1.728a5.258,5.258,0,0,0-1.36-.208C1.584-4.064.672-3.152.672-1.936Zm1.024,0c0-.832.64-1.28,1.536-1.28a2.864,2.864,0,0,1,1.344.256V-1.7a2.269,2.269,0,0,1-1.76.9A1.079,1.079,0,0,1,1.7-1.936Z" transform="translate(368.106 162.535)"/>
      <path id="Path_42" data-name="Path 42" d="M1.664-9.36a.755.755,0,0,0,.768-.752.758.758,0,0,0-.768-.768.755.755,0,0,0-.752.768A.751.751,0,0,0,1.664-9.36ZM1.136-.3a.315.315,0,0,0,.3.3h.5a.315.315,0,0,0,.3-.3V-6.1a.315.315,0,0,0-.3-.3h-.5a.315.315,0,0,0-.3.3Z" transform="translate(376.086 162.535)"/>
      <path id="Path_43" data-name="Path 43" d="M.832-.56a3.245,3.245,0,0,0,2.08.72A2.027,2.027,0,0,0,5.12-1.648c0-1.152-.992-1.648-2.1-2.176-.656-.32-1.184-.56-1.184-1.088,0-.272.192-.64.912-.64a3.184,3.184,0,0,1,1.28.384A.352.352,0,0,0,4.5-5.312l.128-.256a.386.386,0,0,0-.1-.5,3.267,3.267,0,0,0-1.776-.5A1.8,1.8,0,0,0,.72-4.9c0,1.088.976,1.648,1.824,2.064.928.464,1.408.72,1.408,1.28,0,.432-.384.768-1.04.768a2.7,2.7,0,0,1-1.5-.56A.3.3,0,0,0,.976-1.3c-.048.08-.16.3-.224.4A.318.318,0,0,0,.832-.56Z" transform="translate(380.098 162.535)"/>
      <path id="Path_44" data-name="Path 44" d="M.672-1.936A1.943,1.943,0,0,0,2.64.16,2.774,2.774,0,0,0,4.624-.672l.128.432c.048.144.1.24.272.24h.3a.315.315,0,0,0,.3-.3V-3.856c0-1.872-.4-2.7-2.032-2.7a6.013,6.013,0,0,0-2.224.416.258.258,0,0,0-.176.352l.128.4c.048.144.144.224.3.16a5.627,5.627,0,0,1,1.92-.352c.912,0,1.056.544,1.04,1.728a5.258,5.258,0,0,0-1.36-.208C1.584-4.064.672-3.152.672-1.936Zm1.024,0c0-.832.64-1.28,1.536-1.28a2.864,2.864,0,0,1,1.344.256V-1.7a2.269,2.269,0,0,1-1.76.9A1.079,1.079,0,0,1,1.7-1.936Z" transform="translate(386.862 162.535)"/>
      <path id="Path_45" data-name="Path 45" d="M1.152-.3a.315.315,0,0,0,.3.3h.5a.315.315,0,0,0,.3-.3V-10.9a.315.315,0,0,0-.3-.3h-.5a.315.315,0,0,0-.3.3Z" transform="translate(394.847 162.535)"/>
      <text id="_2" data-name=" " transform="translate(398.896 162.535)" font-size="16" font-family="BrandonGrotesque-Medium, Brandon Grotesque" font-weight="500" style="isolation: isolate"><tspan x="0" y="0"> </tspan></text>
      <path id="Path_46" data-name="Path 46" d="M1.7-.352A.292.292,0,0,0,2,0h.1a.309.309,0,0,0,.3-.256L2.8-3.12H5.248L4.832-.352a.308.308,0,0,0,.3.352h.1a.3.3,0,0,0,.3-.256L5.952-3.12h1.28a.288.288,0,0,0,.272-.3v-.112a.3.3,0,0,0-.3-.3H6.064l.384-2.736H7.7a.278.278,0,0,0,.272-.3v-.112a.3.3,0,0,0-.3-.3H6.544l.48-3.552a.3.3,0,0,0-.3-.352h-.1a.326.326,0,0,0-.3.256L5.824-7.3H3.408l.48-3.552A.3.3,0,0,0,3.6-11.2H3.488a.308.308,0,0,0-.288.256L2.688-7.3H1.44a.315.315,0,0,0-.3.3v.112a.315.315,0,0,0,.3.3H2.592L2.208-3.84H.976a.294.294,0,0,0-.3.3v.112a.3.3,0,0,0,.3.3H2.1ZM2.912-3.84l.4-2.736H5.728L5.36-3.84Z" transform="translate(403.116 162.535)"/>
      <text id="_3" data-name=" " transform="translate(413.419 162.535)" font-size="16" font-family="BrandonGrotesque-Medium, Brandon Grotesque" font-weight="500" style="isolation: isolate"><tspan x="0" y="0"> </tspan></text>
      <path id="Path_47" data-name="Path 47" d="M.848-4.4C.848-1.856,1.984.16,4.576.16A3.628,3.628,0,0,0,8.112-3.5a3.381,3.381,0,0,0-3.44-3.472,4.753,4.753,0,0,0-2.432.72C2.8-8.416,5.632-10,6.352-10.24c.3-.1.368-.272.288-.464l-.176-.384a.26.26,0,0,0-.352-.16C4.5-10.608.848-8.656.848-4.4ZM4.576-.9c-2.192,0-2.816-2.4-2.544-4A3.913,3.913,0,0,1,4.56-5.936a2.442,2.442,0,0,1,2.416,2.5A2.481,2.481,0,0,1,4.576-.9Z" transform="translate(417.642 162.535)"/>
      <path id="Path_48" data-name="Path 48" d="M5.056.16c2.48,0,3.888-2.1,3.888-5.6s-1.408-5.6-3.888-5.6-3.888,2.1-3.888,5.6S2.576.16,5.056.16Zm0-1.04C3.3-.88,2.3-2.512,2.3-5.44,2.3-8.336,3.3-10,5.056-10S7.808-8.336,7.808-5.44C7.808-2.512,6.816-.88,5.056-.88Z" transform="translate(427.962 162.535)"/>
      <path id="Path_49" data-name="Path 49" d="M.848-4.4C.848-1.856,1.984.16,4.576.16A3.628,3.628,0,0,0,8.112-3.5a3.381,3.381,0,0,0-3.44-3.472,4.753,4.753,0,0,0-2.432.72C2.8-8.416,5.632-10,6.352-10.24c.3-.1.368-.272.288-.464l-.176-.384a.26.26,0,0,0-.352-.16C4.5-10.608.848-8.656.848-4.4ZM4.576-.9c-2.192,0-2.816-2.4-2.544-4A3.913,3.913,0,0,1,4.56-5.936a2.442,2.442,0,0,1,2.416,2.5A2.481,2.481,0,0,1,4.576-.9Z" transform="translate(439.976 162.535)"/>
      <path id="Path_50" data-name="Path 50" d="M.848-4.4C.848-1.856,1.984.16,4.576.16A3.628,3.628,0,0,0,8.112-3.5a3.381,3.381,0,0,0-3.44-3.472,4.753,4.753,0,0,0-2.432.72C2.8-8.416,5.632-10,6.352-10.24c.3-.1.368-.272.288-.464l-.176-.384a.26.26,0,0,0-.352-.16C4.5-10.608.848-8.656.848-4.4ZM4.576-.9c-2.192,0-2.816-2.4-2.544-4A3.913,3.913,0,0,1,4.56-5.936a2.442,2.442,0,0,1,2.416,2.5A2.481,2.481,0,0,1,4.576-.9Z" transform="translate(450.3 162.535)"/>
      <path id="Path_51" data-name="Path 51" d="M.848-4.4C.848-1.856,1.984.16,4.576.16A3.628,3.628,0,0,0,8.112-3.5a3.381,3.381,0,0,0-3.44-3.472,4.753,4.753,0,0,0-2.432.72C2.8-8.416,5.632-10,6.352-10.24c.3-.1.368-.272.288-.464l-.176-.384a.26.26,0,0,0-.352-.16C4.5-10.608.848-8.656.848-4.4ZM4.576-.9c-2.192,0-2.816-2.4-2.544-4A3.913,3.913,0,0,1,4.56-5.936a2.442,2.442,0,0,1,2.416,2.5A2.481,2.481,0,0,1,4.576-.9Z" transform="translate(460.626 162.535)"/>
      <path id="Path_16" data-name="Path 16" d="M363.349,108.277H509.37v-24.6H363.349Z" transform="translate(136.216 61.955)" fill="none"/>
      <path id="Path_17" data-name="Path 17" d="M363.349,108.277H509.37v-24.6H363.349Z" transform="translate(136.216 61.955)" fill="none"/>
      <path id="Path_53" data-name="Path 53" d="M1.632-.3a.3.3,0,0,0,.3.3h6.3a.3.3,0,0,0,.3-.3V-.768a.3.3,0,0,0-.3-.3H2.864v-4.08H7.456a.3.3,0,0,0,.3-.3V-5.92a.315.315,0,0,0-.3-.3H2.864v-3.9H8.24a.3.3,0,0,0,.3-.3V-10.9a.3.3,0,0,0-.3-.3h-6.3a.3.3,0,0,0-.3.3Z" transform="translate(501.803 162.535)"/>
      <path id="Path_54" data-name="Path 54" d="M.592-.416C.448-.208.528,0,.8,0h.592a.333.333,0,0,0,.256-.128L3.312-2.5h.016l1.7,2.352A.343.343,0,0,0,5.264,0h.592c.256,0,.352-.208.208-.416L4.016-3.28l2.032-2.7c.16-.208.064-.416-.208-.416H5.168a.333.333,0,0,0-.256.128L3.328-4.1H3.312L1.792-6.272A.333.333,0,0,0,1.536-6.4H.864c-.272,0-.368.208-.208.416l2.032,2.72Z" transform="translate(513.056 162.535)"/>
      <path id="Path_55" data-name="Path 55" d="M2.256-.368A2.907,2.907,0,0,0,3.968.16,3.161,3.161,0,0,0,7.04-3.184,3.181,3.181,0,0,0,4.016-6.56a2.853,2.853,0,0,0-1.856.672l-.112-.3c-.064-.16-.112-.208-.256-.208H1.456a.315.315,0,0,0-.3.3V4.5a.315.315,0,0,0,.3.3h.5a.315.315,0,0,0,.3-.3Zm.016-1.1v-3.3A2.174,2.174,0,0,1,3.9-5.552,2.127,2.127,0,0,1,5.92-3.2a2.142,2.142,0,0,1-2.1,2.288A2.682,2.682,0,0,1,2.272-1.472Z" transform="translate(520.985 162.535)"/>
      <path id="Path_56" data-name="Path 56" d="M.9-.752A.922.922,0,0,0,1.808.16.912.912,0,0,0,2.72-.752a.9.9,0,0,0-.912-.912A.912.912,0,0,0,.9-.752Z" transform="translate(530.145 162.535)"/>
      <path id="Path_57" data-name="Path 57" d="M-.32-1.024A3.069,3.069,0,0,0,2.112.16c1.872,0,3.216-1.28,3.216-3.5V-10.9a.3.3,0,0,0-.3-.3H4.4a.3.3,0,0,0-.3.3v7.584c0,1.7-.992,2.4-1.952,2.4A2.269,2.269,0,0,1,.592-1.76C.432-1.936.3-2.048.048-1.808l-.336.384A.337.337,0,0,0-.32-1.024Z" transform="translate(534.441 162.535)"/>
      <path id="Path_58" data-name="Path 58" d="M1.056-2.736c0,1.7.624,2.9,2.48,2.9a2.92,2.92,0,0,0,2.08-.848l.112.416c.048.16.112.272.288.272h.3a.315.315,0,0,0,.3-.3V-6.1a.315.315,0,0,0-.3-.3h-.5a.315.315,0,0,0-.3.3v4.272a2.531,2.531,0,0,1-1.9.912c-.9,0-1.44-.592-1.44-1.808V-6.1a.315.315,0,0,0-.3-.3H1.36a.315.315,0,0,0-.3.3Z" transform="translate(542.144 162.535)"/>
      <path id="Path_59" data-name="Path 59" d="M1.152-.3a.315.315,0,0,0,.3.3h.5a.315.315,0,0,0,.3-.3V-10.9a.315.315,0,0,0-.3-.3h-.5a.315.315,0,0,0-.3.3Z" transform="translate(551.366 162.535)"/>
      <text id="_4" data-name=" " transform="translate(555.41 162.535)" font-size="16" font-family="BrandonGrotesque-Regular, Brandon Grotesque" style="isolation: isolate"><tspan x="0" y="0"> </tspan></text>
      <path id="Path_60" data-name="Path 60" d="M.672-.3a.3.3,0,0,0,.3.3h6.08a.315.315,0,0,0,.3-.3V-.736a.315.315,0,0,0-.3-.3h-4.7C3.376-2.128,4.4-3.232,5.424-4.32c1.1-1.184,2-2.224,2-3.632,0-1.632-1.168-3.088-3.456-3.088A4.067,4.067,0,0,0,.928-9.472a.316.316,0,0,0,.016.416l.32.3a.291.291,0,0,0,.432,0,3.272,3.272,0,0,1,2.272-1.2A2.019,2.019,0,0,1,6.208-7.92a4.9,4.9,0,0,1-1.616,2.9C3.28-3.616,1.984-2.192.672-.784Z" transform="translate(559.631 162.535)"/>
      <path id="Path_61" data-name="Path 61" d="M1.072-1.168A3.812,3.812,0,0,0,4.16.16,3.634,3.634,0,0,0,7.872-3.5c0-2.1-1.28-3.36-3.7-3.36H2.32V-9.808H6.384a.3.3,0,0,0,.3-.3v-.464a.3.3,0,0,0-.3-.3H1.552a.3.3,0,0,0-.3.3v4.224a.532.532,0,0,0,.5.56H4.176a2.244,2.244,0,0,1,2.512,2.3A2.588,2.588,0,0,1,4.176-.864,2.93,2.93,0,0,1,1.808-2.048c-.128-.176-.256-.144-.4-.016-.128.112-.24.24-.368.352C.848-1.52.864-1.408,1.072-1.168Z" transform="translate(569.495 162.535)"/>
      <path id="Path_62" data-name="Path 62" d="M.88-.752A.922.922,0,0,0,1.792.16.779.779,0,0,0,1.984.144,2.729,2.729,0,0,1,.992,2.16c-.16.144-.176.3-.1.384l.224.224c.1.1.224.112.384-.032A4.4,4.4,0,0,0,2.848-.224c0-1.152-.544-1.44-1.056-1.44A.912.912,0,0,0,.88-.752Z" transform="translate(579.627 162.535)"/>
      <text id="_5" data-name=" " transform="translate(584.06 162.535)" font-size="16" font-family="BrandonGrotesque-Regular, Brandon Grotesque" style="isolation: isolate"><tspan x="0" y="0"> </tspan></text>
      <path id="Path_63" data-name="Path 63" d="M.672-.3a.3.3,0,0,0,.3.3h6.08a.315.315,0,0,0,.3-.3V-.736a.315.315,0,0,0-.3-.3h-4.7C3.376-2.128,4.4-3.232,5.424-4.32c1.1-1.184,2-2.224,2-3.632,0-1.632-1.168-3.088-3.456-3.088A4.067,4.067,0,0,0,.928-9.472a.316.316,0,0,0,.016.416l.32.3a.291.291,0,0,0,.432,0,3.272,3.272,0,0,1,2.272-1.2A2.019,2.019,0,0,1,6.208-7.92a4.9,4.9,0,0,1-1.616,2.9C3.28-3.616,1.984-2.192.672-.784Z" transform="translate(588.283 162.535)"/>
      <path id="Path_64" data-name="Path 64" d="M5.056.16c2.48,0,3.888-2.1,3.888-5.6s-1.408-5.6-3.888-5.6-3.888,2.1-3.888,5.6S2.576.16,5.056.16Zm0-1.04C3.3-.88,2.3-2.512,2.3-5.44,2.3-8.336,3.3-10,5.056-10S7.808-8.336,7.808-5.44C7.808-2.512,6.816-.88,5.056-.88Z" transform="translate(598.146 162.535)"/>
      <path id="Path_65" data-name="Path 65" d="M.672-.3a.3.3,0,0,0,.3.3h6.08a.315.315,0,0,0,.3-.3V-.736a.315.315,0,0,0-.3-.3h-4.7C3.376-2.128,4.4-3.232,5.424-4.32c1.1-1.184,2-2.224,2-3.632,0-1.632-1.168-3.088-3.456-3.088A4.067,4.067,0,0,0,.928-9.472a.316.316,0,0,0,.016.416l.32.3a.291.291,0,0,0,.432,0,3.272,3.272,0,0,1,2.272-1.2A2.019,2.019,0,0,1,6.208-7.92a4.9,4.9,0,0,1-1.616,2.9C3.28-3.616,1.984-2.192.672-.784Z" transform="translate(610.153 162.535)"/>
      <path id="Path_66" data-name="Path 66" d="M1.072-1.168A3.812,3.812,0,0,0,4.16.16,3.634,3.634,0,0,0,7.872-3.5c0-2.1-1.28-3.36-3.7-3.36H2.32V-9.808H6.384a.3.3,0,0,0,.3-.3v-.464a.3.3,0,0,0-.3-.3H1.552a.3.3,0,0,0-.3.3v4.224a.532.532,0,0,0,.5.56H4.176a2.244,2.244,0,0,1,2.512,2.3A2.588,2.588,0,0,1,4.176-.864,2.93,2.93,0,0,1,1.808-2.048c-.128-.176-.256-.144-.4-.016-.128.112-.24.24-.368.352C.848-1.52.864-1.408,1.072-1.168Z" transform="translate(620.024 162.535)"/>
    </g>
  </g>
</svg>
