<?xml version="1.0" encoding="UTF-8"?><svg id="Layer_2" xmlns="http://www.w3.org/2000/svg" viewBox="0 0 800 800"><defs><style>.cls-1{fill:#fff;}.cls-2{fill:#ff1628;}</style></defs><g id="Layer_1-2"><g><rect class="cls-2" width="800" height="800"/><g><path class="cls-1" d="M199.04,123.32v10.83c0,20.06-6.42,36.31-19.26,48.74-12.84,12.44-29.49,18.66-49.75,18.66-21.67,0-39.72-7.02-53.96-21.06-14.24-14.24-21.26-31.49-21.26-51.75s7.02-37.71,21.06-51.95c14.24-14.24,31.69-21.26,52.56-21.26,26.28,0,49.14,12.84,61.18,32.7l-23.67,13.64c-6.62-11.43-21.06-19.46-37.71-19.46-13.44,0-24.47,4.41-33.1,13.24-8.62,8.63-12.84,19.66-12.84,33.1s4.41,24.27,13.04,32.9c8.83,8.62,20.46,12.84,34.91,12.84,21.46,0,35.91-10.03,40.92-26.68h-42.52v-24.47h70.41Z"/><path class="cls-1" d="M240.49,115.69c4.58-12.84,16.01-19.26,28.97-19.26v28.88c-7.43-1-14.29,.6-20.2,4.82-5.91,4.21-8.77,11.03-8.77,20.66v47.94h-24.58V98.44h24.58v17.25Z"/><path class="cls-1" d="M310.98,159.22c3.41,12.64,12.84,18.86,28.28,18.86,9.83,0,17.45-3.41,22.47-10.03l20.86,12.04c-9.83,14.24-24.47,21.46-43.73,21.46-16.65,0-29.89-5.02-39.92-15.04-10.03-10.03-15.04-22.67-15.04-37.91s5.02-27.68,14.84-37.71c9.83-10.23,22.67-15.25,38.11-15.25,14.64,0,26.88,5.01,36.31,15.25,9.63,10.23,14.44,22.67,14.44,37.71,0,3.41-.4,6.82-1,10.63h-75.62Zm50.75-20.06c-3.01-13.64-13.04-20.26-24.87-20.26-13.84,0-23.27,7.42-26.28,20.26h51.15Z"/><path class="cls-1" d="M480.89,98.44h25.88v100.3h-25.88v-11.83c-7.82,9.83-18.65,14.64-32.69,14.64s-24.87-5.02-34.5-15.25c-9.43-10.23-14.24-22.87-14.24-37.71s4.82-27.28,14.24-37.51c9.63-10.23,21.06-15.45,34.5-15.45s24.87,4.81,32.69,14.64v-11.83Zm-27.88,78.43c8.03,0,14.64-2.61,19.86-7.82,5.41-5.42,8.02-12.24,8.02-20.46s-2.61-15.04-8.02-20.26c-5.22-5.42-11.83-8.02-19.86-8.02s-14.64,2.61-19.86,8.02c-5.22,5.22-7.82,12.04-7.82,20.26s2.61,15.04,7.82,20.46c5.21,5.22,11.83,7.82,19.86,7.82Z"/><path class="cls-1" d="M591.63,123.32h-22.67v41.72c0,10.83,7.82,11.03,22.67,10.23v23.47c-35.51,4.01-48.55-6.22-48.55-33.7v-41.72h-17.45v-24.87h17.45v-20.26l25.88-7.82v28.08h22.67v24.87Z"/><path class="cls-1" d="M125.63,234.68c13.44,0,24.87,4.61,34.1,13.64,9.23,9.03,13.84,20.26,13.84,33.5s-4.61,24.47-13.84,33.5c-9.23,9.03-20.66,13.64-34.1,13.64h-24.67v46.14h-27.68V234.68h52.35Zm0,68.4c11.83,0,20.46-9.23,20.46-21.26s-8.62-21.26-20.46-21.26h-24.67v42.52h24.67Z"/><path class="cls-1" d="M192.43,375.1V235.98h25.88v139.12h-25.88Z"/><path class="cls-1" d="M322.22,274.8h25.88v100.3h-25.88v-11.83c-7.82,9.83-18.65,14.64-32.69,14.64s-24.87-5.02-34.5-15.25c-9.43-10.23-14.24-22.87-14.24-37.71s4.82-27.28,14.24-37.51c9.63-10.23,21.06-15.45,34.5-15.45s24.87,4.81,32.69,14.64v-11.83Zm-27.88,78.43c8.03,0,14.64-2.61,19.86-7.82,5.41-5.42,8.02-12.24,8.02-20.46s-2.61-15.04-8.02-20.26c-5.22-5.42-11.83-8.02-19.86-8.02s-14.64,2.61-19.86,8.02c-5.22,5.22-7.82,12.04-7.82,20.26s2.61,15.04,7.82,20.46c5.21,5.22,11.83,7.82,19.86,7.82Z"/><path class="cls-1" d="M385.42,362.66c-10.03-10.23-15.04-22.67-15.04-37.71s5.02-27.48,15.04-37.71c10.23-10.23,22.87-15.25,37.91-15.25,19.46,0,36.71,10.03,44.93,25.88l-22.26,13.04c-4.01-8.22-12.64-13.44-22.87-13.44-15.44,0-26.88,11.43-26.88,27.48,0,7.82,2.61,14.44,7.62,19.66,5.01,5.01,11.43,7.62,19.26,7.62,10.43,0,19.06-5.02,23.07-13.24l22.47,12.84c-8.83,15.85-25.88,26.08-45.34,26.08-15.04,0-27.68-5.02-37.91-15.25Z"/><path class="cls-1" d="M509.99,335.58c3.41,12.64,12.84,18.86,28.28,18.86,9.83,0,17.45-3.41,22.47-10.03l20.86,12.04c-9.83,14.24-24.47,21.46-43.73,21.46-16.65,0-29.89-5.02-39.92-15.04-10.03-10.03-15.04-22.67-15.04-37.91s5.02-27.68,14.84-37.71c9.83-10.23,22.67-15.25,38.11-15.25,14.64,0,26.88,5.01,36.31,15.25,9.63,10.23,14.44,22.67,14.44,37.71,0,3.41-.4,6.82-1,10.63h-75.62Zm50.75-20.06c-3.01-13.64-13.04-20.26-24.87-20.26-13.84,0-23.27,7.42-26.28,20.26h51.15Z"/><path class="cls-1" d="M158.12,418.06v25.16h-37.91v108.24h-27.68v-108.24H54.81v-25.16h103.3Z"/><path class="cls-1" d="M201.24,554.27c-14.84,0-27.48-5.02-37.71-15.25-10.23-10.23-15.25-22.87-15.25-37.71s5.02-27.28,15.25-37.51c10.23-10.23,22.87-15.45,37.71-15.45s27.48,5.22,37.71,15.45c10.23,10.23,15.45,22.67,15.45,37.51s-5.21,27.48-15.45,37.71c-10.23,10.23-22.87,15.25-37.71,15.25Zm0-25.28c7.82,0,14.24-2.61,19.46-7.82,5.21-5.22,7.82-11.83,7.82-19.86s-2.61-14.64-7.82-19.86c-5.22-5.22-11.63-7.82-19.46-7.82s-14.24,2.61-19.46,7.82c-5.02,5.22-7.62,11.83-7.62,19.86s2.61,14.64,7.62,19.86c5.21,5.22,11.63,7.82,19.46,7.82Z"/><path class="cls-1" d="M97.92,736.02l-39.32-140.41h29.09l26.88,104.11,29.29-104.11h23.67l29.49,104.11,26.88-104.11h29.09l-39.32,140.41h-31.49l-26.48-92.67-26.28,92.67h-31.49Z"/><path class="cls-1" d="M303.55,738.83c-14.84,0-27.48-5.02-37.71-15.25-10.23-10.23-15.25-22.87-15.25-37.71s5.02-27.28,15.25-37.51c10.23-10.23,22.87-15.45,37.71-15.45s27.48,5.22,37.71,15.45c10.23,10.23,15.45,22.67,15.45,37.51s-5.21,27.48-15.45,37.71c-10.23,10.23-22.87,15.25-37.71,15.25Zm0-25.28c7.82,0,14.24-2.61,19.46-7.82,5.21-5.22,7.82-11.83,7.82-19.86s-2.61-14.64-7.82-19.86c-5.22-5.22-11.63-7.82-19.46-7.82s-14.24,2.61-19.46,7.82c-5.02,5.22-7.62,11.83-7.62,19.86s2.61,14.64,7.62,19.86c5.21,5.22,11.63,7.82,19.46,7.82Z"/><path class="cls-1" d="M400.84,652.98c4.82-12.84,16.85-19.26,30.49-19.26v28.88c-7.82-1-15.04,.6-21.26,4.82-6.22,4.21-9.23,11.03-9.23,20.66v47.94h-25.88v-100.3h25.88v17.25Z"/><path class="cls-1" d="M542.87,736.02h-30.09l-36.51-45.53v45.53h-25.88v-140.41h25.88v84.25l34.5-44.13h30.89l-40.32,49.55,41.52,50.75Z"/></g><path class="cls-1" d="M552.31,717.94c0-12.57,10.01-22.68,22.68-22.68s22.68,10.01,22.68,22.58-10.01,22.58-22.68,22.58-22.68-9.71-22.68-22.48Zm41.27-.1c0-11.13-7.77-18.9-18.59-18.9s-18.6,7.87-18.6,19,8.17,18.8,18.6,18.8,18.59-7.76,18.59-18.9Zm-26.36-11.44h7.87c5.21,0,8.58,2.15,8.58,6.74v.1c0,3.37-1.94,5.21-4.6,6.03l5.93,9.5h-5.11l-5.42-8.68h-2.35v8.68h-4.9v-22.37Zm7.77,10.32c2.55,0,3.88-1.13,3.88-3.27v-.1c0-2.35-1.43-3.17-3.88-3.17h-2.86v6.54h2.86Z"/></g></g></svg>